<svg xmlns="http://www.w3.org/2000/svg" fill="none" viewBox="0 0 200 58">
  <path fill="#00B4F1" d="M82.251 3.152 70.587 35.224h4.443l2.591-7.169h14.103l2.591 7.17h4.39L87.087 3.151h-4.836ZM78.826 24.63 84.66 8.335l5.83 16.295H78.826Zm33.917-11.619a7.812 7.812 0 0 1 4.654 1.34 6.548 6.548 0 0 1 2.52 3.655h4.537a10.688 10.688 0 0 0-4.008-6.293c-2.021-1.512-4.589-2.268-7.703-2.268a12.555 12.555 0 0 0-6.411 1.621 11.276 11.276 0 0 0-4.372 4.56 14.301 14.301 0 0 0-1.575 6.87 14.559 14.559 0 0 0 1.575 6.945 11.263 11.263 0 0 0 4.372 4.583 12.551 12.551 0 0 0 6.411 1.616 12.219 12.219 0 0 0 7.639-2.35 11.168 11.168 0 0 0 4.072-6.229h-4.537a6.576 6.576 0 0 1-2.544 3.702 7.886 7.886 0 0 1-4.63 1.299 7.435 7.435 0 0 1-5.835-2.503c-1.481-1.665-2.222-4.026-2.222-7.081 0-3.056.741-5.393 2.222-7.01a7.467 7.467 0 0 1 5.835-2.457Zm35.362 1.482a9.544 9.544 0 0 0-3.678-3.614 11.285 11.285 0 0 0-5.765-1.434 11.88 11.88 0 0 0-6.134 1.622 11.397 11.397 0 0 0-4.325 4.56 14.187 14.187 0 0 0-1.575 6.822 14.526 14.526 0 0 0 1.575 6.852 11.515 11.515 0 0 0 10.459 6.34 10.906 10.906 0 0 0 5.741-1.48 10.158 10.158 0 0 0 3.702-3.703v5.324c0 2.62-.732 4.658-2.197 6.111a7.715 7.715 0 0 1-5.671 2.174 9.404 9.404 0 0 1-5.23-1.41 6.64 6.64 0 0 1-2.873-3.725h-4.166a9.248 9.248 0 0 0 3.937 6.434c2.221 1.567 4.998 2.35 8.332 2.35a12.965 12.965 0 0 0 6.411-1.527 10.58 10.58 0 0 0 4.231-4.231 12.632 12.632 0 0 0 1.486-6.182V9.862h-4.26v4.63ZM146.93 27.52a8.116 8.116 0 0 1-3.126 3.285 8.474 8.474 0 0 1-4.325 1.134c-1.512.017-3-.374-4.307-1.134a8.229 8.229 0 0 1-3.103-3.285 10.575 10.575 0 0 1-1.175-5.07 10.32 10.32 0 0 1 1.175-4.996 8.103 8.103 0 0 1 3.103-3.243 8.859 8.859 0 0 1 8.632 0 8.18 8.18 0 0 1 3.126 3.267 10.32 10.32 0 0 1 1.175 4.995 10.473 10.473 0 0 1-1.157 5.047h-.018Zm14.92-17.658h-4.214V35.23h4.214V9.862ZM159.816.003a2.875 2.875 0 0 0-2.772 4 2.875 2.875 0 0 0 2.772 1.74 2.611 2.611 0 0 0 1.963-.833 2.938 2.938 0 0 0 0-4.073 2.608 2.608 0 0 0-1.963-.834Zm11.57.975h-4.213V35.23h4.213V.977Zm28.464 20.595a12.767 12.767 0 0 0-1.504-6.228 10.87 10.87 0 0 0-4.284-4.325 12.691 12.691 0 0 0-6.387-1.575 13.156 13.156 0 0 0-6.546 1.598 11.027 11.027 0 0 0-4.419 4.56 15.751 15.751 0 0 0 .041 13.815 11.493 11.493 0 0 0 4.472 4.607 12.798 12.798 0 0 0 6.464 1.616 12.29 12.29 0 0 0 7.592-2.292 10.85 10.85 0 0 0 4.072-5.946h-4.537a6.693 6.693 0 0 1-2.568 3.402 7.761 7.761 0 0 1-4.559 1.275 8.18 8.18 0 0 1-5.671-2.11c-1.557-1.398-2.409-3.355-2.568-5.876h20.273c.087-.837.13-1.679.129-2.52Zm-20.366-.881a8.324 8.324 0 0 1 2.567-5.647 7.823 7.823 0 0 1 5.442-2.033 9.033 9.033 0 0 1 4.048.899 6.886 6.886 0 0 1 2.891 2.638 7.755 7.755 0 0 1 1.07 4.143h-16.018Z"/>
  <path fill="#085478" d="M10.948 18.965 0 37.93h21.902L10.948 18.965Z"/>
  <path fill="#013E5C" d="M21.902 37.93 10.948 56.903 0 37.93h21.902Z"/>
  <path fill="#085478" d="M21.902 0 10.948 18.965H32.85L21.902 0Z"/>
  <path fill="#098BBE" d="M32.85 18.965 21.902 37.93 10.948 18.965H32.85Z"/>
  <path fill="#01425C" d="M43.804 0 32.85 18.965 21.902 0h21.902Z"/>
  <path fill="#013E5C" d="M32.85 18.965 21.902 0h21.902L32.85 18.965Z"/>
  <path fill="#098BBE" d="M43.798 37.93 32.85 18.965h21.902L43.798 37.93Z"/>
  <path fill="#085478" d="M54.752 18.965 43.804 0 32.85 18.965h21.902Z"/>
  <path fill="#00B4F1" d="M65.7 37.93 54.753 18.965 43.798 37.93h21.903Z"/>
  <path fill="#013E5C" d="M24.36 57.238h-1.494l1.94-5.745h1.865l1.94 5.745h-1.493l-1.376-4.3h-.048l-1.334 4.3Zm-.2-2.264h3.116v1.06H24.16v-1.06Zm12.236-1.402H35.02a1.33 1.33 0 0 0-.117-.386.999.999 0 0 0-.227-.303.978.978 0 0 0-.344-.185 1.373 1.373 0 0 0-.426-.069 1.258 1.258 0 0 0-.723.206 1.374 1.374 0 0 0-.46.592 2.403 2.403 0 0 0-.16.936c-.01.328.043.656.16.963.094.235.257.436.467.578.206.13.445.196.688.192a1.36 1.36 0 0 0 .42-.055c.119-.037.23-.096.33-.172a.957.957 0 0 0 .24-.282c.063-.116.108-.241.131-.371h1.376a2.34 2.34 0 0 1-.22.75 2.611 2.611 0 0 1-.502.688 2.429 2.429 0 0 1-.784.481 3.061 3.061 0 0 1-2.443-.165 2.435 2.435 0 0 1-.977-.997 3.393 3.393 0 0 1-.35-1.61 3.288 3.288 0 0 1 .357-1.603 2.5 2.5 0 0 1 .977-1.005c.422-.23.896-.348 1.376-.344.327-.003.652.046.963.145.285.09.549.235.778.426.23.188.417.423.55.688.155.28.255.585.296.901Zm7.764 0h-1.376a1.326 1.326 0 0 0-.117-.386.942.942 0 0 0-.571-.489 1.417 1.417 0 0 0-.427-.068 1.238 1.238 0 0 0-.722.206c-.209.148-.37.354-.461.592a2.394 2.394 0 0 0-.165.936c-.01.329.046.656.165.963a1.184 1.184 0 0 0 1.17.77c.141.005.283-.014.42-.055a1.04 1.04 0 0 0 .336-.172c.096-.079.178-.174.241-.282a1.25 1.25 0 0 0 .13-.371h1.377a2.08 2.08 0 0 1-.22.75 2.333 2.333 0 0 1-.503.688c-.225.209-.49.372-.777.481a3.083 3.083 0 0 1-2.45-.165 2.463 2.463 0 0 1-.97-.997 3.392 3.392 0 0 1-.357-1.61 3.289 3.289 0 0 1 .365-1.603c.22-.423.56-.772.977-1.005a2.82 2.82 0 0 1 1.375-.344c.33-.003.657.046.97.145.283.093.547.238.778.426.23.187.415.422.544.688.147.28.238.586.268.901Zm7.934.791a3.316 3.316 0 0 1-.365 1.61 2.52 2.52 0 0 1-.984 1.004 2.856 2.856 0 0 1-1.376.337 2.752 2.752 0 0 1-1.376-.344 2.47 2.47 0 0 1-.983-1.004 3.709 3.709 0 0 1 0-3.206 2.47 2.47 0 0 1 .983-1.005 2.992 2.992 0 0 1 2.787 0c.418.233.76.582.984 1.005a3.29 3.29 0 0 1 .33 1.603Zm-1.417 0a2.527 2.527 0 0 0-.159-.943 1.376 1.376 0 0 0-.454-.592 1.376 1.376 0 0 0-1.424 0 1.245 1.245 0 0 0-.454.592 2.91 2.91 0 0 0 0 1.892 1.184 1.184 0 0 0 1.163.784 1.21 1.21 0 0 0 .688-.2 1.28 1.28 0 0 0 .454-.584 2.53 2.53 0 0 0 .186-.95Zm7.395-2.87h1.376v3.736a1.966 1.966 0 0 1-1.163 1.858c-.397.18-.83.269-1.266.26-.44.01-.878-.08-1.28-.26a2.064 2.064 0 0 1-.853-.737 2.064 2.064 0 0 1-.302-1.121v-3.701h1.376v3.584c-.005.185.04.368.13.53a.93.93 0 0 0 .365.364 1.1 1.1 0 0 0 .55.131c.19.005.377-.04.544-.13a.93.93 0 0 0 .364-.365c.091-.162.136-.345.131-.53l.028-3.619Zm8.706 0v5.745h-1.184l-2.284-3.316v3.316h-1.376v-5.745h1.197l2.257 3.31h.048v-3.31h1.342Zm2.485 1.128v-1.128h4.857v1.128h-1.74v4.617h-1.376V52.62h-1.74Zm8.719-1.128v5.745h-1.376v-5.745h1.376Zm7.363 0v5.745H84.17l-2.284-3.316h-.042v3.316h-1.376v-5.745h1.19l2.264 3.31h.048v-3.31h1.376Zm6.257 1.879a.886.886 0 0 0-.138-.316 1.041 1.041 0 0 0-.227-.234.907.907 0 0 0-.31-.138 1.32 1.32 0 0 0-.378-.055 1.245 1.245 0 0 0-1.163.791 2.753 2.753 0 0 0 0 1.878c.09.242.251.45.461.599.22.137.477.207.737.2.221.006.442-.037.646-.125a.908.908 0 0 0 .4-.35c.095-.165.143-.353.137-.544h.261-1.376v-1.011h2.477v.764a2.5 2.5 0 0 1-.33 1.32 2.208 2.208 0 0 1-.895.847 3.144 3.144 0 0 1-2.751-.062 2.518 2.518 0 0 1-.97-1.019 3.302 3.302 0 0 1-.351-1.568 3.55 3.55 0 0 1 .213-1.26 2.67 2.67 0 0 1 .585-.928c.249-.253.55-.45.88-.578a3.02 3.02 0 0 1 2.002-.055c.276.09.535.228.764.406a2.104 2.104 0 0 1 .798 1.41l-1.472.028Zm8.986 3.866h-1.493l1.933-5.745h1.851l1.94 5.745h-1.493l-1.376-4.3h-.048l-1.314 4.3Zm-.199-2.264h3.116v1.06h-3.116v-1.06Zm11.793-3.481v5.745h-1.176l-2.284-3.316h-.041v3.316h-1.376v-5.745h1.19l2.263 3.31h.049v-3.31h1.375Zm4.612 5.745h-2.126v-5.744h2.126a3.094 3.094 0 0 1 1.513.344c.43.217.783.56 1.012.983a3.631 3.631 0 0 1 0 3.083 2.305 2.305 0 0 1-.977.99 3.172 3.172 0 0 1-1.548.344Zm-.736-1.183h.688c.282.009.562-.048.818-.165.228-.114.408-.304.509-.537.23-.64.23-1.34 0-1.981a1.067 1.067 0 0 0-.516-.53 1.87 1.87 0 0 0-.832-.165h-.688l.021 3.378Zm9.569 1.183v-5.745h2.395c.368-.01.734.051 1.08.18.275.095.515.273.688.508.147.228.223.493.22.764.002.203-.045.404-.138.585-.089.17-.219.317-.378.426a1.503 1.503 0 0 1-.557.234v.055c.225.01.445.077.639.193.201.112.367.276.482.474.119.21.181.447.179.688.004.294-.08.581-.241.826-.17.254-.409.454-.688.578a2.547 2.547 0 0 1-1.08.206l-2.601.028Zm1.376-3.385h.771c.137.002.272-.024.399-.076a.555.555 0 0 0 .275-.22.564.564 0 0 0 .103-.344.55.55 0 0 0-.206-.454.847.847 0 0 0-.55-.165h-.792v1.259Zm0 2.264h.86c.243.023.486-.038.688-.172a.58.58 0 0 0 .214-.475.69.69 0 0 0-.104-.386.75.75 0 0 0-.295-.247 1.17 1.17 0 0 0-.461-.09h-.881l-.021 1.37Zm11.168-1.754a3.24 3.24 0 0 1-.365 1.61c-.226.42-.567.77-.983 1.004a2.851 2.851 0 0 1-1.376.337 2.75 2.75 0 0 1-1.376-.344 2.468 2.468 0 0 1-.984-1.004 3.707 3.707 0 0 1 0-3.206c.224-.423.565-.772.984-1.005a2.988 2.988 0 0 1 2.786 0c.418.233.76.582.984 1.005a3.22 3.22 0 0 1 .33 1.603Zm-1.417 0a2.524 2.524 0 0 0-.158-.943 1.177 1.177 0 0 0-1.163-.791c-.244 0-.482.07-.688.2-.203.151-.36.356-.454.591a2.906 2.906 0 0 0 0 1.892c.09.236.248.439.454.585.204.133.444.203.688.2a1.183 1.183 0 0 0 1.163-.785 2.54 2.54 0 0 0 .158-.95Zm9.363 0a3.32 3.32 0 0 1-.365 1.61c-.228.422-.572.77-.991 1.005a2.826 2.826 0 0 1-1.376.337 2.753 2.753 0 0 1-1.376-.344 2.466 2.466 0 0 1-.983-1.005 3.707 3.707 0 0 1 0-3.206c.223-.423.565-.772.983-1.004a2.994 2.994 0 0 1 2.752 0c.42.232.764.581.991 1.004.255.495.381 1.047.365 1.603Zm-1.425 0a2.37 2.37 0 0 0-.158-.942 1.274 1.274 0 0 0-1.35-.782c-.185.025-.363.09-.521.19a1.312 1.312 0 0 0-.461.592 2.906 2.906 0 0 0 0 1.892c.09.237.251.441.461.585.204.134.444.204.688.2a1.183 1.183 0 0 0 1.163-.785c.123-.301.184-.624.178-.95Zm3.911 2.875v-5.745h1.376v2.429h.076l1.906-2.429h1.63l-2.064 2.566 2.064 3.179h-1.665l-1.41-2.257-.557.688v1.555l-1.356.014Zm7.474 0v-5.745h1.376v2.429h.076l1.898-2.429h1.638l-2.064 2.566 2.064 3.179H159.4l-1.431-2.257-.557.688v1.555l-1.335.014Zm7.473 0v-5.745h4.011v1.128h-2.621v1.177h2.415v1.128h-2.415v1.183h2.621v1.129h-4.011Zm6.497 0v-5.745h4.011v1.128h-2.622v1.177h2.429v1.128h-2.415v1.183h2.621v1.129h-4.024Zm6.51.001v-5.745h2.373c.386-.01.769.076 1.115.248.29.158.529.397.688.688a2.197 2.197 0 0 1 0 2.063 1.756 1.756 0 0 1-.743.688 2.43 2.43 0 0 1-1.135.248h-1.466v-1.094h1.204a1.21 1.21 0 0 0 .53-.11.758.758 0 0 0 .316-.31.904.904 0 0 0 .11-.46.884.884 0 0 0-.11-.461.686.686 0 0 0-.323-.303 1.183 1.183 0 0 0-.523-.103h-.688v4.623l-1.348.028Zm8.295-5.746v5.745h-1.376v-5.745h1.376Zm7.363 0v5.745h-1.183l-2.284-3.316h-.035v3.316h-1.376v-5.745h1.198l2.256 3.31h.048v-3.31h1.376Zm6.319 1.879a1.03 1.03 0 0 0-.145-.316 1.032 1.032 0 0 0-.227-.234.898.898 0 0 0-.309-.138 1.293 1.293 0 0 0-.379-.055 1.229 1.229 0 0 0-1.19.791 2.803 2.803 0 0 0 0 1.878c.09.242.251.45.461.599.221.137.477.206.736.2a1.53 1.53 0 0 0 .647-.125.925.925 0 0 0 .406-.35c.093-.166.14-.354.137-.544h.255-1.376v-1.011h2.449v.764c.013.46-.099.917-.323 1.32-.217.36-.529.653-.902.847a2.86 2.86 0 0 1-1.314.289 2.916 2.916 0 0 1-1.444-.351 2.514 2.514 0 0 1-.97-1.019 3.38 3.38 0 0 1-.344-1.568 3.551 3.551 0 0 1 .206-1.26c.131-.346.333-.662.592-.928.247-.252.544-.45.873-.578a3.02 3.02 0 0 1 2.002-.055c.276.09.535.228.764.406.218.17.403.38.544.62.137.243.224.512.254.79l-1.403.028Z"/>
</svg>