<svg xmlns="http://www.w3.org/2000/svg" fill="none" viewBox="0 0 811 631"><g opacity=".2"><path stroke="#045D9E" stroke-dasharray="12 10" stroke-linecap="round" stroke-miterlimit="10" stroke-width="3" d="M180.96 156.216c-10.202-4.795-27.072 3.001-32.45 14.415-10.269 21.787 22.941 53.341 35.017 49.954 13.496-3.783 16.16-55.563-2.567-64.369ZM129.931 205.564c-3.641-2.105-42.204-24.412-64.026-6.758-15.324 12.396-15.47 38.893-3.955 53.783 22.807 29.495 93.529 16.272 100.866-4.832 4.949-14.212-18.251-33.731-32.885-42.193Z"/><path stroke="#045D9E" stroke-dasharray="8 12" stroke-linecap="round" stroke-miterlimit="10" stroke-width="2" d="M179.556 569.763c93.864-23.297 200.519-47.016 366.132-42.976 92.621 2.259 113.609-26.483 183.805-62.22 62.567-31.849 93.296-95.187 74.423-131.083-19.053-36.239-77.088-21.811-124.617-75.755-21.645-24.569-17.836-41.789-30.333-69.034-39.573-86.268-187.894-153.697-261.034-118.012-96.627 47.143-14.018 250.851-122.031 306.488-68.322 35.2-119.963-32.373-187.423 19.21C45.052 421.94 4.171 457.803 1.01 496.722c0 0-4.426 95.175 178.547 73.041Z"/><path fill="#DBF5FF" d="M698.146 463.76s-17.003 22.544-34.009 53.474c-15.332 27.892-26.991 65.479-29.566 96.854-7.221-.341-15.152-.662-23.727-.966-50.786-1.802-124.105-2.931-205.629-2.931-92.682 0-174.757 1.461-225.176 3.707-1.735.078-3.433.156-5.094.235-62.947-78.021-189.703-213.947-73.052-269.864 0 0 8.546-2.603 21.358-8.194 40.549-17.707 123.876-65.32 114.607-155.112 0 0-3.157-16.755-3.157-40.07C234.697 86.377 251.958-3.987 367.179.136c69.776 2.502 134.036 38.008 172.886 94.84 38.107 55.743 99.038 124.319 148.666 85.172 11.455-9.038 26.6-12.392 40.74-8.417 35.702 10.032 76.28 61.966-31.325 292.029Z"/></g><path fill="#F3F8FE" d="M791 620.494C791 626.295 618.407 631 405.504 631c-120.128 0-227.42-1.497-298.12-3.846-16.285-.54-30.626-1.126-42.734-1.74-7.977-.409-14.985-.836-20.941-1.28C28.372 622.997 20 621.773 20 620.494c0-1.627 13.587-3.17 37.838-4.542 9.932-.58 21.651-1.102 34.958-1.601C162.811 611.708 276.789 610 405.494 610c113.214 0 215.03 1.328 285.556 3.449 62.101 1.853 99.95 4.33 99.95 7.045Z"/><path fill="#E1EBF9" d="M515.429 610.109a5.533 5.533 0 0 1-5.533 5.534H329.058a5.559 5.559 0 0 1-2.638-.668 5.567 5.567 0 0 1-2.647-3.222 5.559 5.559 0 0 1-.249-1.644l.249-1.643c.053-.172.115-.342.185-.508l.234-.486c.068-.124.142-.248.22-.369l.737-.906c.275-.278.579-.525.906-.738a5.872 5.872 0 0 1 .854-.454 5.549 5.549 0 0 1 2.153-.433 12.405 12.405 0 0 0 12.011-9.296l2.08-8.083 12.325-47.637 2.046-7.902 2.922-11.289 2.159-8.353h113.73l2.162 8.353 1.66 6.388 1.265 4.901 2.046 7.902 2.23 8.619 10.095 39.018 2.093 8.088a12.405 12.405 0 0 0 12.011 9.297 5.549 5.549 0 0 1 2.151.433c.166.071.328.149.485.236a5.582 5.582 0 0 1 2.009 1.857 6.26 6.26 0 0 1 .454.856 5.534 5.534 0 0 1 .433 2.149Z"/><path fill="#CCDCF1" d="M483.47 539.557H355.486l2.046-7.903 2.922-11.289 2.159-8.353h113.73l2.162 8.353 1.654 6.388 1.265 4.901 2.046 7.903Z"/><path fill="#EAF2FC" d="M611.384 260.732h-383.81c-6.234 0-11.288 5.054-11.288 11.289v248.346c0 6.234 5.054 11.288 11.288 11.288h383.81c6.234 0 11.288-5.054 11.288-11.288V272.021c0-6.235-5.054-11.289-11.288-11.289Z"/><path fill="#F9FBFD" d="M602.159 272.02H236.797a9.222 9.222 0 0 0-9.223 9.222v229.901a9.223 9.223 0 0 0 9.223 9.223h365.362a9.224 9.224 0 0 0 9.223-9.223V281.242c0-5.093-4.13-9.222-9.223-9.222Z"/><path fill="#fff" d="M611.383 297.076V509.08a11.289 11.289 0 0 1-11.29 11.288H238.862a11.291 11.291 0 0 1-11.288-11.288V297.076h383.809Z"/><path fill="#E1EBF9" d="M611.383 281.043v16.087H227.574v-16.087a9.022 9.022 0 0 1 9.023-9.023H602.36a9.022 9.022 0 0 1 9.023 9.023Z"/><path fill="#040C2B" d="M246.629 287c1.452 0 2.629-1.119 2.629-2.5s-1.177-2.5-2.629-2.5-2.629 1.119-2.629 2.5 1.177 2.5 2.629 2.5ZM255.887 287c1.452 0 2.629-1.119 2.629-2.5s-1.177-2.5-2.629-2.5-2.629 1.119-2.629 2.5 1.177 2.5 2.629 2.5ZM265.145 287c1.452 0 2.629-1.119 2.629-2.5s-1.177-2.5-2.629-2.5-2.629 1.119-2.629 2.5 1.177 2.5 2.629 2.5Z"/><path fill="#CCDCF1" d="M515.429 610.111a5.533 5.533 0 0 1-5.533 5.534H329.058a5.559 5.559 0 0 1-2.638-.668 5.57 5.57 0 0 1-2.647-3.222 5.549 5.549 0 0 1-.249-1.644l.249-1.643c.054-.173.117-.343.185-.507l.234-.487c.068-.124.142-.247.22-.369l.737-.906c.275-.278.579-.525.906-.738a5.862 5.862 0 0 1 .854-.453 5.549 5.549 0 0 1 2.153-.434h180.834a5.547 5.547 0 0 1 2.15.434c.166.07.328.149.485.236.126.066.249.142.369.217a5.585 5.585 0 0 1 1.858 2.009c.086.159.162.319.236.487a5.548 5.548 0 0 1 .435 2.154Z"/><path fill="#E1EBF9" d="M256.005 542.834h-74.886v74.886h74.886v-74.886Z"/><path fill="#D2E1F4" d="M181.148 542.834h-49.046v74.886h49.046v-74.886Z"/><path fill="#000" d="M256.007 552.277H132.102v1.845h123.905v-1.845Z" opacity=".1"/><path fill="#000" d="M208.515 564.35h20.096c.932 0 1.688-.756 1.688-1.688v-2.605c0-.932-.756-1.687-1.688-1.687h-20.096c-.932 0-1.687.755-1.687 1.687v2.605c0 .932.755 1.688 1.687 1.688Z" opacity=".15"/><path fill="#C9885B" d="m181.682 455.221.049 9.441 13.64 2.56 7.932-4.16-3.427-4.572-1.895-2.527a2.4 2.4 0 0 1-.442-1.797l1.66-10.838-13.29-6.135 1.122 8.614.184 1.415c.384 4.589-5.533 7.999-5.533 7.999Z"/><path fill="#000" d="m185.893 437.195 1.254 9.761c4.659 8.614 10.554 10.632 12.727 11.536l-1.894-2.527a2.386 2.386 0 0 1-.443-1.797l1.66-10.838-13.304-6.135Z" opacity=".15"/><path fill="#DB965F" d="M205.554 435.062s-1.605 19.415-7.221 18.456c0 0-6.271-1.119-12.788-11.251l-1.555-4.106 4.611-5.227 16.953 2.128Z"/><path fill="#000" d="M191.409 438.156s-.201 3.308-.803 4.267h-.902s.1-3.414-2.508-4.161c0 0-3.21-.534-1.404 4.161l1.153 1.973.269 3.204s-3.628-6.883-4.231-11.045c0 0-.026-.151-.055-.42-.827-7.454 5.98-13.386 12.706-10.997a9.622 9.622 0 0 1 2.068 1.024s13.88-2.634 7.356 13.298c0 0-.162-3.368-2.966-3.764-.218-.03-.824-.659-1.038-.703-.884-.184-2.236-.861-4.54-.05.002 0-2.619 3.54-5.105 3.213Z"/><path fill="#DB965F" d="m232.146 613.855 2.968-.275 7.933-.734-.857-12.928-.292-4.385-6.17 1.017-1.647.269-.289 2.543-1.646 14.493Z"/><path fill="#040C2B" d="M230.872 617.802c25.932 3.526 28.457-2.048 28.457-2.048 3.281-4.559-2.018-5.679-3.927-5.93a5.127 5.127 0 0 0-.935-.022c-2.848.185-11.857-5.316-11.857-5.316l-2.049 1.605c-2.088 1.959-3.873 1.893-5.196 1.275a6.18 6.18 0 0 1-2.259-1.957c-.059-.082-.089-.13-.089-.13-3.79-1.163-3.853 7.093-3.853 7.093-.544 5.358 1.708 5.43 1.708 5.43ZM190.05 535.142c1.106 1.166 2.923 2.225 5.194 3.178 9.61 4.042 27.343 6.236 33.721 6.923a2.743 2.743 0 0 1 2.411 2.709l.981 49.006a2.787 2.787 0 0 0 1.435 2.398c.358.196.756.305 1.164.319l.675.023 6.271.221h.297a2.743 2.743 0 0 0 2.479-2.582l3.888-58.082c.439-6.538-3.342-12.594-9.289-14.874l-33.175-10.668-7.676.323-11.547.485-.509.02a2.731 2.731 0 0 0-2.435 2.363c-1.479 10.091 6.115 18.238 6.115 18.238Z"/><path fill="#000" d="m185.424 510.414 1.446 4.108 8.374 23.794c9.61 4.041 27.343 6.236 33.721 6.922a2.747 2.747 0 0 1 2.411 2.71l.981 49.006a2.79 2.79 0 0 0 1.435 2.398l-.686 6.046a6.18 6.18 0 0 0 2.259 1.957l.135-3.37.131-4.292.098-3.156 1.638-53.551c.522-8.584-4.542-16.481-12.394-19.328l-26.56-9.631-.889-.322-12.1-3.291Z" opacity=".15"/><path fill="#DB965F" d="m220.237 599.459-1.935 17.034 10.901-1.009-1.149-17.312-7.817 1.287Z"/><path fill="#040C2B" d="M217.028 620.439s-2.252-.071-1.706-5.432c0 0 .061-8.253 3.851-7.089 0 0 3.11 4.98 7.544.812l2.049-1.605s9.011 5.493 11.857 5.316a4.77 4.77 0 0 1 .933.022c1.911.249 7.21 1.37 3.929 5.93 0 0-2.525 5.574-28.457 2.046ZM171.432 513.508l22.672 1.78c.395-.035.793.021 1.162.164l30.158 11.567c5.945 2.281 9.726 8.337 9.289 14.876l-3.888 58.083a2.732 2.732 0 0 1-2.767 2.582l-6.937-.242a2.74 2.74 0 0 1-2.599-2.722l-.98-49.008a2.745 2.745 0 0 0-2.412-2.708c-7.885-.85-33.129-4.004-38.919-10.101 0 0-7.594-8.147-6.124-18.238.181-1.271.102-5.923 1.345-6.033Z"/><path fill="#DB965F" d="m206.346 476.787 3.148 16.423.775 4.047 8.365-4.626-.568-7.153-.679-8.554-4.298-.054-2.101-.026-4.642-.057Z"/><path fill="#DB965F" d="M230.149 506.012s3.372-1.203 8.269-.553a1.2 1.2 0 0 1-1.035 1.66l-2.422.164s6.799 1.734 7.974 5.472c0 0 1.321 5.405-3.628 6.523 0 0-4.158 2.372-11.727-5.135l-28.612-19.819 8.853-4.058 22.328 15.746Z"/><path fill="#fff" d="m208.825 487.758 2.916-1.046 6.034-2.163 1.33-.478c-3.321-18.019-6.539-21.682-8.011-22.361-.529-.243-.834-.099-.834-.099l-.854 15.549-.581 10.598Z"/><path fill="#000" d="m204.816 477.846 5.737 15.707 1.189-6.841-.256-9.864-.391-15.138c-.529-.243-.834-.099-.834-.099l-.854 15.549-4.591.686Z" opacity=".15"/><path fill="#fff" d="M170.264 462.015a2.928 2.928 0 0 0-1.267 2.276l-.719 14.146-.144 2.818v.212l.553 28.835.028 1.323a2.884 2.884 0 0 0 1.866 2.678c13.137 4.768 32.478.922 39.194-.675a2.894 2.894 0 0 0 2.167-3.11l-1.844-19.753a2.51 2.51 0 0 1-.011-.368l.872-26.674.203-2.123-9.481-4.034-3.2-.922s-.979 3.435-2.54 5.165c-1.291 1.435-3.689 1.077-5.422.241-4.176-2.005-6.15-3.893-7.046-5.389l-1.212-1.813-11.997 7.167Z"/><path fill="#000" d="m168.128 481.361.564 28.94 2.551-5.039 3.512-27.295-6.478.468-.149 2.926Z" opacity=".15"/><path fill="#000" d="m203.905 518.663-9.964-.081v2.245h8.83l1.134-2.164Z"/><path fill="#B4D0F3" d="M213.492 490.484h39.858l-11.101 29.258-39.604 1.084 10.847-30.342Z"/><path fill="#89ABD6" d="m242.71 518.527-1.343 2.221h-38.596l.696-2.221h39.243Z"/><path fill="#DB965F" d="m161.21 504.321 26.778 15.652c9.263 5.425 12.543 2.04 12.543 2.04 4.386-2.355 1.636-7.313 1.636-7.313-2.153-3.363-9.082-3.32-9.082-3.32l2.254-.779a1.202 1.202 0 0 0 .521-1.883c-4.823.62-7.691 2.656-7.691 2.656l-19.797-13.28a.257.257 0 0 1-.146-.329l3.737-10.277-9.866-5.08-3.91 16.079c-.589 2.451.714 4.976 3.023 5.834Z"/><path fill="#fff" d="M171.013 462.006s-6.609-.433-10.122 23.366l11.118 4.228s9.936-26.124-.996-27.594Z"/><path fill="#D2E1F4" d="M771.613 330.902h-37.495a7.411 7.411 0 0 1-7.409-7.411v-32.906a7.41 7.41 0 0 1 7.409-7.409h37.495a7.418 7.418 0 0 1 5.24 2.169 7.39 7.39 0 0 1 2.171 5.24v32.9a7.408 7.408 0 0 1-7.411 7.417Z"/><path fill="#fff" d="m770.242 314.64-.087 2.45v.05h.013l1.214.359a7.292 7.292 0 0 1-.923 2.061l-.022.033-.468-.201-.773-.334-1.533 1.994.577.738a7.584 7.584 0 0 1-2.134.95l-.278-1.148h-2.535l-.352 1.314a7.514 7.514 0 0 1-2.398-.805l.709-1.169-1.769-1.787-1.391.819h-.011l-.102-.142a7.28 7.28 0 0 1-1.178-2.708l1.234-.281.085-2.499-1.292-.347a7.318 7.318 0 0 1 1.081-2.48l1.332.704 1.734-1.826-.729-1.088a7.53 7.53 0 0 1 3.003-1.027l.314 1.475 2.532.068.369-1.237c.227-.094 1.629.688 2.311 1.221l-.789 1.127 1.739 1.887 1.077-.581c.351.671.593 1.394.718 2.141l-1.278.269Zm-6.087-3.716a4.775 4.775 0 0 0-3.359 1.374 4.646 4.646 0 0 0-1.391 3.312 4.64 4.64 0 0 0 1.391 3.311 4.793 4.793 0 0 0 6.716 0 4.643 4.643 0 0 0-.282-6.879 4.74 4.74 0 0 0-3.081-1.118h.006ZM767.693 298.641l-.094 2.875v.058h.015l1.326.422a8.915 8.915 0 0 1-1.029 2.459l-.513-.238-.843-.391-1.677 2.338.631.854a7.951 7.951 0 0 1-2.335 1.107l-.303-1.346h-2.766l-.386 1.538a7.778 7.778 0 0 1-2.614-.944l.777-1.371-1.935-2.099-1.52.963h-.014a8.828 8.828 0 0 1-1.402-3.342l1.348-.33.092-2.933-1.409-.406a8.903 8.903 0 0 1 1.184-2.911l1.456.829 1.896-2.144-.797-1.278a7.872 7.872 0 0 1 3.283-1.203l.341 1.734 2.767.08.404-1.452c.249-.109 1.78.81 2.527 1.433l-.863 1.323 1.9 2.213 1.18-.682c.384.794.647 1.64.782 2.512l-1.409.332Zm-6.661-4.359a4.95 4.95 0 0 0-2.862.91 5.363 5.363 0 0 0-.81.702 5.716 5.716 0 0 0-.009 7.771 4.98 4.98 0 0 0 3.671 1.61 4.996 4.996 0 0 0 3.672-1.61 5.718 5.718 0 0 0 0-7.771 6.25 6.25 0 0 0-.308-.302 4.98 4.98 0 0 0-3.354-1.31Z"/><path fill="#fff" d="m754.395 309.397-.131 3.958v.079h.018l1.826.581a12.305 12.305 0 0 1-1.381 3.331l-.034.054-.704-.327-1.162-.538-2.306 3.22.869 1.177a10.968 10.968 0 0 1-3.21 1.535l-.416-1.845h-3.813l-.529 2.119a10.726 10.726 0 0 1-3.595-1.291l1.068-1.888-2.66-2.889-2.094 1.317-.018.011a12.198 12.198 0 0 1-1.924-4.602l1.856-.454.127-4.039-1.939-.553a12.33 12.33 0 0 1 1.627-4.007l2.003 1.14 2.607-2.951-1.094-1.758a10.765 10.765 0 0 1 4.512-1.66l.472 2.387 3.809.111.553-2c.341-.149 2.448 1.107 3.475 1.974l-1.188 1.82 2.614 3.051 1.621-.941a12.312 12.312 0 0 1 1.077 3.463l-1.936.415Zm-9.16-6.004a6.816 6.816 0 0 0-3.934 1.252 7.356 7.356 0 0 0-1.116.968 7.894 7.894 0 0 0-.011 10.699 6.85 6.85 0 0 0 5.049 2.211 6.865 6.865 0 0 0 5.045-2.221 7.89 7.89 0 0 0 .013-10.698 8.361 8.361 0 0 0-.426-.417 6.84 6.84 0 0 0-4.62-1.794Z"/><path fill="#D2E1F4" d="M79.56 451.531H42.064a7.412 7.412 0 0 1-7.41-7.411v-32.906a7.407 7.407 0 0 1 7.41-7.409h37.494a7.399 7.399 0 0 1 5.24 2.169 7.41 7.41 0 0 1 2.172 5.24v32.9a7.413 7.413 0 0 1-7.412 7.417Z"/><path fill="#fff" d="m78.189 435.269-.087 2.449v.05h.013l1.214.36a7.282 7.282 0 0 1-.922 2.06l-.022.033-.469-.201-.773-.334-1.533 1.994.578.729a7.593 7.593 0 0 1-2.134.95l-.279-1.148h-2.532l-.353 1.314a7.537 7.537 0 0 1-2.397-.804l.708-1.17-1.77-1.787-1.39.819h-.01l-.102-.142a7.276 7.276 0 0 1-1.179-2.708l1.234-.28.085-2.5-1.291-.346a7.31 7.31 0 0 1 1.08-2.481l1.332.704 1.734-1.826-.729-1.088a7.525 7.525 0 0 1 3.003-1.027l.314 1.475 2.532.069.37-1.238c.226-.094 1.628.688 2.31 1.221l-.789 1.127 1.74 1.887 1.076-.581c.35.671.593 1.394.718 2.141l-1.28.279Zm-6.087-3.717a4.775 4.775 0 0 0-3.359 1.374 4.638 4.638 0 0 0 0 6.624 4.797 4.797 0 0 0 6.716 0 4.647 4.647 0 0 0 1.39-3.312 4.642 4.642 0 0 0-1.672-3.568 4.742 4.742 0 0 0-3.08-1.118h.005ZM75.64 419.27l-.094 2.875v.057h.015l1.326.423a8.878 8.878 0 0 1-1.03 2.459l-.512-.238-.843-.391-1.676 2.338.63.854a7.948 7.948 0 0 1-2.335 1.107l-.302-1.346h-2.767l-.386 1.538a7.753 7.753 0 0 1-2.613-.945l.776-1.37-1.935-2.099-1.52.963h-.014a8.839 8.839 0 0 1-1.402-3.342l1.348-.331.093-2.932-1.41-.406a8.879 8.879 0 0 1 1.184-2.911l1.456.828 1.896-2.143-.797-1.278a7.875 7.875 0 0 1 3.283-1.203l.342 1.734 2.766.079.404-1.451c.25-.109 1.78.81 2.527 1.433l-.863 1.323 1.9 2.213 1.18-.683c.384.794.648 1.641.782 2.513l-1.409.332Zm-6.66-4.359a4.957 4.957 0 0 0-2.863.909 5.43 5.43 0 0 0-.81.703 5.719 5.719 0 0 0-.009 7.771 4.983 4.983 0 0 0 3.672 1.61 4.993 4.993 0 0 0 3.671-1.61 5.718 5.718 0 0 0 0-7.771 6.037 6.037 0 0 0-.308-.302 4.977 4.977 0 0 0-3.353-1.31Z"/><path fill="#fff" d="m62.34 430.027-.13 3.959v.079h.018l1.826.581a12.303 12.303 0 0 1-1.381 3.331l-.033.054-.705-.327-1.162-.538-2.306 3.22.87 1.177a10.947 10.947 0 0 1-3.21 1.534l-.417-1.844h-3.813l-.529 2.119a10.74 10.74 0 0 1-3.595-1.3l1.068-1.889-2.66-2.888-2.093 1.326-.019.011c-.051-.076-.103-.151-.153-.229a12.21 12.21 0 0 1-1.77-4.373l1.855-.454.127-4.039-1.938-.554a12.305 12.305 0 0 1 1.627-4.006l2.003 1.14 2.606-2.951-1.094-1.758a10.768 10.768 0 0 1 4.512-1.66l.472 2.387 3.809.11.553-1.999c.342-.149 2.448 1.107 3.475 1.974l-1.188 1.82 2.614 3.051 1.621-.941c.528 1.095.891 2.262 1.078 3.462l-1.937.415Zm-9.159-6.003a6.82 6.82 0 0 0-3.934 1.252 7.343 7.343 0 0 0-1.116.968 7.893 7.893 0 0 0-.011 10.698 6.845 6.845 0 0 0 5.047 2.217 6.847 6.847 0 0 0 5.048-2.217 7.889 7.889 0 0 0 .013-10.698 8.574 8.574 0 0 0-.427-.417 6.84 6.84 0 0 0-4.62-1.803Z"/><path fill="#F4AE7C" fill-rule="evenodd" d="M681.605 505.199c1.878-.334 2.311-.516 2.379-.789.068-.273-.881-1.278-1.747-1.19-.866.089-1.274 1.464-.632 1.979Z" clip-rule="evenodd"/><path fill="#D1A383" fill-rule="evenodd" d="M644.046 495.037c.557-3.03 2.03-5.547 3.87-7l8.673 2.888 14.636 4.872 12.615 4.2 7.356 2.45 8.575 2.307-.07.526-.123.662-8.917-1.048-7.666-.326-13.284-.567-15.408-.656-9.131-.39c-1.203-2.013-1.685-4.889-1.126-7.918Z" clip-rule="evenodd"/><path fill="#E3BB9B" fill-rule="evenodd" d="M646.289 489.847c-.011-.003-.023-.004-.034-.003a.121.121 0 0 0-.032.011.092.092 0 0 0-.04.053c-.003.011-.004.022-.003.034a.082.082 0 0 0 .011.031c.005.01.013.019.022.025a.085.085 0 0 0 .03.015l29.016 8.014a.092.092 0 0 0 .036.007.106.106 0 0 0 .035-.009.089.089 0 0 0 .028-.023.076.076 0 0 0 .017-.032.087.087 0 0 0 .002-.036.079.079 0 0 0-.013-.033.089.089 0 0 0-.025-.026.109.109 0 0 0-.034-.013l-29.016-8.015ZM645.555 490.869c-.011-.003-.022-.004-.033-.003a.075.075 0 0 0-.033.01.075.075 0 0 0-.025.022.087.087 0 0 0-.016.03.087.087 0 0 0 .01.065.09.09 0 0 0 .052.041l29.094 8.016a.09.09 0 0 0 .066-.008.084.084 0 0 0 .04-.052.062.062 0 0 0 .003-.033.07.07 0 0 0-.01-.032.07.07 0 0 0-.023-.025.069.069 0 0 0-.03-.014l-29.095-8.017ZM644.252 500.127a.075.075 0 0 0-.033.004.073.073 0 0 0-.03.016.086.086 0 0 0-.029.058.09.09 0 0 0 .019.063.089.089 0 0 0 .058.03l30.011 2.859a.084.084 0 0 0 .063-.02.086.086 0 0 0-.048-.151l-30.011-2.859Z" clip-rule="evenodd"/><path fill="#E9EFF8" fill-rule="evenodd" d="M675.294 501.538a.092.092 0 0 0-.064.015.086.086 0 0 0-.021.119.081.081 0 0 0 .054.036l15.464 2.687a.084.084 0 0 0 .091-.07.082.082 0 0 0-.012-.061.083.083 0 0 0-.049-.037l-15.463-2.689Z" clip-rule="evenodd"/><path fill="#C19274" fill-rule="evenodd" d="M645.491 487.229c.123-.08.236-.156.355-.229l2.392.796a4.743 4.743 0 0 0-.322.246c-1.845 1.452-3.313 3.97-3.871 6.999-.557 3.03-.076 5.904 1.126 7.919.069.114.14.229.215.339l-2.519-.108a4.674 4.674 0 0 1-.246-.34c-1.392-2.019-1.986-5.086-1.39-8.327.597-3.241 2.24-5.904 4.26-7.295ZM657.781 491.433c.089-.061.18-.123.27-.173l1.816.604c-.082.057-.163.123-.246.182-1.396 1.107-2.515 3.016-2.939 5.316-.425 2.3-.057 4.485.861 6.014.052.087.107.174.163.258l-1.911-.082a3.637 3.637 0 0 1-.192-.26c-1.057-1.532-1.508-3.862-1.054-6.323.454-2.461 1.695-4.479 3.232-5.536ZM666.03 493.932c.075-.053.15-.101.226-.147l1.526.508c-.07.049-.138.1-.206.154-1.174.926-2.115 2.532-2.469 4.466-.354 1.933-.05 3.77.717 5.053.044.075.09.146.138.217l-1.606-.07a3.09 3.09 0 0 1-.16-.216c-.89-1.289-1.268-3.246-.888-5.315.38-2.069 1.431-3.764 2.722-4.65ZM675.906 497.385c.05-.036.103-.069.155-.1l1.04.346-.139.104c-.802.633-1.444 1.73-1.686 3.049-.242 1.32-.032 2.572.492 3.444.03.051.06.1.095.148l-1.097-.046a2.268 2.268 0 0 1-.11-.148c-.607-.88-.861-2.214-.605-3.628.256-1.413.975-2.564 1.855-3.169ZM686.708 500.894c.029-.019.057-.039.088-.056l.59.197c-.027.017-.052.039-.079.059-.454.359-.818.984-.956 1.722s-.02 1.46.279 1.958c.016.028.034.055.052.082l-.623-.026-.061-.083c-.345-.5-.492-1.259-.343-2.058.149-.799.553-1.453 1.053-1.795ZM693.95 503.185l5.821 1.567-.07.527-.123.661-5.954-.699-2.748-.323a2.221 2.221 0 0 1-.104-1.208c.08-.46.304-.882.641-1.206l2.537.681Z" clip-rule="evenodd"/><path fill="#E3BB9B" fill-rule="evenodd" d="M682.226 501.799c1.792-1.23-1.107-2.103-2.659-2.379-4.419-.781 1.126 3.434 2.659 2.379Zm-37.329-3.769c-.166-1.704-.165-7.19 2.418-2.226.515.993 2.889 2.398 3.664 2.916 3.365 2.246-5.819 2.015-6.082-.69Zm12.262 1.942c-.215-1.612.972-2.665 1.526-2.075.412.438.737 1.253 1.099 1.669.362.417 2.141 1.765 2.39 2.053 1.483 1.73-4.813-.151-5.015-1.647Zm8.822 2.311c-.511-1.544.462-2.798 1.114-2.319.486.353.953 1.097 1.39 1.438.436.34 2.429 1.338 2.727 1.584 1.777 1.42-4.759.738-5.231-.703Z" clip-rule="evenodd"/><path fill="#F4AE7C" fill-rule="evenodd" d="M703.593 514.056c.546-.276 3.567-.306 6.596.225a5.846 5.846 0 0 1-.815-1.887c-5.4-.652-4.92-1.998-4.732-2.61 1.003-2.917 1.607-4.757.802-5.603a2.718 2.718 0 0 0-1.521 1.942c-.345-.195-.785-.454-.853-.839-.161-1.149-.189-3.556-1.516-3.72a46.945 46.945 0 0 0-.599 3.387c-.738.626-.747 3.061-.206 5.889-.393 1.578.554 2.487 2.843 2.728l.001.488Z" clip-rule="evenodd"/><path fill="#040B29" fill-rule="evenodd" d="M704.643 509.778c-.182.615-.668 1.958 4.732 2.61 2.395-.434 4.467-2.473 4.786-3.38 2.99-5.343 0-7.773-1.62-8.681-.508-5.432-8.549-.984-12.372-3.745-1.65 2.091.171 4.879 1.386 4.976 1.327.164 1.353 2.571 1.516 3.72.068.385.508.644.853.839a2.724 2.724 0 0 1 1.521-1.942c.797.846.199 2.686-.802 5.603Z" clip-rule="evenodd"/><path fill="#99A9D4" fill-rule="evenodd" d="M710.19 514.275c.335.3.637.635.9 1l-.186-.053a58.387 58.387 0 0 0-8.195-.198c.254-.36.551-.687.884-.974.546-.276 3.565-.306 6.597.225Z" clip-rule="evenodd"/><path fill="#F4AE7C" fill-rule="evenodd" d="M720.476 549.438c-.597.785-1.342 1.204-2.489 2.368l.018.123-.184.047c-.254.267-.529.572-.825.924.629.48 1.404.117 2.326-1.087.082 1.303-.23 2.287-.937 2.951-.347.421-.628.738-.844.975.716 1.148 2.126.647 4.231-1.501.407-.824.338-1.625.574-2.369.097-.402.218-.797.362-1.184a4.774 4.774 0 0 1-2.225-1.238l-.007-.009Z" clip-rule="evenodd"/><path fill="#040B29" fill-rule="evenodd" d="M717.288 552.107c1.292 7.289 2.127 18.809 2.374 29.938 1.196 5.25 1.383 13.695.725 30.851-2.024.469-3.787.6-5.289.393-3.105-15.9-4.354-24.198-3.908-30.41-.935-4.428-2.279-12.558-3.872-18.878-1.23 6.396-2.104 14.596-2.786 19.065.803 6.179.03 14.534-2.16 30.586-1.482.291-3.245.261-5.288-.089-1.641-17.097-1.938-25.532-1.047-30.843-.394-11.225-.213-22.877.679-30.221 8.467.973 15.324.842 20.572-.392ZM701.58 616.758c.515.379.689 2.203.32 3.6-1.64.791-3.263.642-4.866-.079-.807-.286-1.785-.784-1.781-1.36 0-1.09.028-1.116 2.232-2.337a8.543 8.543 0 0 1-.092.615c.106.256.309.443.675.191.4-.281.239-1.143 1.401-1.197.962-.042.999.878 1.476 1.172.527.338.623-.2.635-.605ZM716.03 616.338c-.492.407-.562 2.238-.113 3.615 1.68.691 3.295.45 4.851-.36.246-.123 1.197-.461 1.266-.728.246-.941-.026-2.177-1.926-2.939.039.22.08.425.123.615-.093.259-.283.458-.665.228-.415-.256-.302-1.127-1.467-1.115-.962.013-.945.934-1.407 1.254-.499.369-.627-.165-.662-.57Z" clip-rule="evenodd"/><path fill="#F4AE7C" fill-rule="evenodd" d="M701.534 613.781a17.01 17.01 0 0 0-.043 3.495c-.085.187-.246.276-.544.082-.478-.294-.515-1.214-1.475-1.172-1.163.054-1.002.916-1.401 1.197-.369.252-.57.065-.676-.191.157-.84.231-2.021.223-3.544a15.42 15.42 0 0 0 3.916.133ZM715.907 613.366c.2 1.15.282 2.317.246 3.484.094.185.258.263.546.052.462-.32.445-1.241 1.407-1.253 1.165-.013 1.051.861 1.467 1.114.381.23.572.031.664-.228-.204-.831-.346-2.007-.425-3.527a15.489 15.489 0 0 1-3.905.358Z" clip-rule="evenodd"/><path fill="#406FB5" fill-rule="evenodd" d="M694.729 523.558c2.509 7.27 4.212 12.897 5.109 16.88 2.997 1.959 5.102 3.403 6.314 4.332-4.228-2.225-6.827-3.607-7.797-4.149-.91 2.453-1.61 6.395-2.098 11.827-.109-2.091.243-6.042 1.056-11.852a252.7 252.7 0 0 0-2.583-17.038h-.001Zm-10.252-8.499c-.8.437-1.42.92-1.861 1.449a12.273 12.273 0 0 1 3.235-.836c-.492-.222-.942-.423-1.374-.615v.002Zm34.064 12.595c-.017.594-.132 1.537-.344 2.829-.416 3.444-1.23 8.286-1.612 15.72.467 1.766 1.214 4.07 1.42 5.722l-.345.088c-.287-1.205-.893-2.872-1.82-5.002-.343.251-1.332.644-2.967 1.18a97.833 97.833 0 0 1 2.109-1.922c1.061-7.257 2.247-13.462 3.559-18.615Z" clip-rule="evenodd"/><path fill="#F4AE7C" fill-rule="evenodd" d="M679.041 509.111c.015-1.52-2.31-7.3-2.31-7.3s.755-3.785 1.45-3.887c.695-.103 1.051-.246 1.758-.046.707.2 2.441.231 2.441.231 1.909.539-1.088 4.428.324 6.427.328.463-.921.264-.873.604.034.224.18 1.189.386 2.59l-3.176 1.381Z" clip-rule="evenodd"/><path fill="#E1EBF9" fill-rule="evenodd" d="M719.08 518.656c-1.52-1.342-5.695-2.75-8.177-3.434a58.585 58.585 0 0 0-8.441-.187c-5.155.097-8.071.172-13.988.492-3.375-4.735-2.843-2.891-5.877-10.195-.592.449-2.413.444-4.685.276 3.068 7.708 2.611 14.899 4.92 16.137a74.247 74.247 0 0 0 11.899 1.809 254.15 254.15 0 0 1 2.583 17.037c-.812 5.812-1.164 9.763-1.057 11.852 9.068 1.077 16.317.905 21.747-.516-.205-1.652-.953-3.956-1.419-5.722.383-7.434 1.195-12.279 1.611-15.72 1.774 3.343 3.426 5.849 4.954 7.517-1.072 3.026-2.06 6.729-2.963 11.108.662.82 1.588 1.363 2.78 1.63 1.361-2.535 4.318-8.327 5.01-12.606.487-3.414-6.739-16.867-8.897-19.478Z" clip-rule="evenodd"/><path fill="#CCDCF1" d="M386.572 401.214c0 23.866 19.348 43.214 43.214 43.214 4.381 0 8.604-.648 12.591-1.866a23.158 23.158 0 0 0 5.127 3.143c7.268 3.26 13.828 1.866 15.793 1.375a35.471 35.471 0 0 1-7.445-11.393C466.263 427.81 473 415.298 473 401.214 473 377.348 453.652 358 429.786 358s-43.214 19.348-43.214 43.214Z"/><path fill="#B9CEE9" d="M453 413.867c0 23.122-19.476 41.867-43.5 41.867-4.409 0-8.66-.628-12.674-1.808a23.478 23.478 0 0 1-5.161 3.045c-7.316 3.159-13.92 1.808-15.897 1.332a34.299 34.299 0 0 0 7.494-11.038C372.782 439.634 366 427.512 366 413.867 366 390.745 385.476 372 409.5 372s43.5 18.745 43.5 41.867Z"/><path fill="#E1EBF9" d="M449.428 416.929c0 23.866-19.348 43.214-43.214 43.214-4.38 0-8.604-.648-12.591-1.866a23.158 23.158 0 0 1-5.127 3.143c-7.268 3.26-13.828 1.866-15.792 1.375a35.488 35.488 0 0 0 7.444-11.393C369.737 443.525 363 431.013 363 416.929c0-23.866 19.348-43.214 43.214-43.214s43.214 19.348 43.214 43.214Z"/><path fill="#040C2B" fill-rule="evenodd" d="M392.082 412.426h.008-.016.008Zm-1.122-.462c.316.301.711.46 1.122.462a1.565 1.565 0 0 0 1.122-.462l1.79-1.79 1.791 1.79c.316.301.711.46 1.122.462h-.008.016-.008a1.586 1.586 0 0 0 1.122-2.706l-1.791-1.79 1.791-1.791a1.586 1.586 0 1 0-2.244-2.244l-1.791 1.791-1.79-1.791a1.586 1.586 0 1 0-2.244 2.244l1.79 1.791-1.79 1.79a1.584 1.584 0 0 0 0 2.244ZM412.393 412.426h.008-.016.008Zm-1.122-.462c.316.301.711.46 1.122.462a1.564 1.564 0 0 0 1.122-.462l1.791-1.79 1.79 1.79c.316.301.711.46 1.122.462h-.008.016-.008a1.584 1.584 0 0 0 1.122-2.706l-1.79-1.79 1.79-1.791a1.586 1.586 0 1 0-2.244-2.244l-1.79 1.791-1.791-1.791a1.586 1.586 0 1 0-2.244 2.244l1.791 1.791-1.791 1.79a1.584 1.584 0 0 0 0 2.244Z" clip-rule="evenodd"/><path fill="#040C2B" d="M418.921 433.8a1.938 1.938 0 0 1-1.728-1.041 12.383 12.383 0 0 0-10.961-6.58c-4.596 0-8.8 2.514-10.96 6.58a1.956 1.956 0 0 1-2.652.805 1.956 1.956 0 0 1-.806-2.652 16.341 16.341 0 0 1 14.438-8.662c6.05 0 11.589 3.32 14.437 8.662a1.95 1.95 0 0 1-.805 2.652 1.958 1.958 0 0 1-.923.236h-.04Z"/></svg>