<svg xmlns="http://www.w3.org/2000/svg" fill="none" viewBox="0 0 708 230"><path fill="#FAFCFE" d="M113.059 30.749c6.872 0 10.309 0 13.433-.949a21.998 21.998 0 0 0 7.364-3.88c2.549-2.042 4.491-4.876 8.376-10.546 3.885-5.669 5.828-8.504 8.376-10.545a22.008 22.008 0 0 1 7.364-3.88C161.097 0 164.533 0 171.406 0h426.04c5.84 0 8.76 0 11.483.708a22.005 22.005 0 0 1 6.57 2.922c2.349 1.548 4.304 3.717 8.215 8.054 3.911 4.338 5.867 6.507 8.216 8.055a21.991 21.991 0 0 0 6.57 2.922c2.723.708 5.643.708 11.483.708H670.6c14.403 0 21.605 0 26.895 3.242a22.001 22.001 0 0 1 7.263 7.263C708 39.164 708 46.366 708 60.769v113.382c0 14.403 0 21.604-3.242 26.895a22.003 22.003 0 0 1-7.263 7.263c-5.29 3.242-12.492 3.242-26.895 3.242H339.807c-1.982 0-2.972 0-3.918.081a22.005 22.005 0 0 0-13.519 6.221c-.677.665-1.322 1.417-2.611 2.922-1.289 1.505-1.934 2.258-2.611 2.923a21.999 21.999 0 0 1-13.519 6.22c-.946.082-1.937.082-3.918.082H83.319a18.3 18.3 0 0 1-15.89-9.225 18.299 18.299 0 0 0-15.891-9.224H37.4c-14.403 0-21.605 0-26.895-3.242a22.002 22.002 0 0 1-7.263-7.263C0 195.755 0 188.554 0 174.151V68.149c0-14.403 0-21.605 3.242-26.895a22 22 0 0 1 7.263-7.263c5.29-3.242 12.492-3.242 26.895-3.242h75.659Z"/><path stroke="#F1F4F7" stroke-width=".7" d="M218 15v200M234 15v200M250 15v200M266 15v200M282 15v200M298 15v200M314 15v184M330 15v184M346 15v184M362 15v184M378 15v184M394 15v184M410 15v184M426 15v184M442 15v184M458 15v184M474 15v184M490 15v184M506 15v184M522 15v184M538 15v184M554 15v184M570 15v184M586 15v184M602 15v184M618 31v168M634 31v168M650 47v152M666 47v152M682 47v152M698 47v152M202 15v200M186 15v200M170 15v200M154 15v200M138 47v168M122 47v168M106 47v168M90 47v168M74 47v152M58 47v152M42 47v152M26 47v152M10 47v152M143.838 22.992h471.467M143.838 39h495.44M.533 55h706.935M0 71h708M0 87h708M0 103h708M0 119h708M0 135h708M0 151h708M0 167h708M0 183h708M82 199h224M0 167h703.205"/><path fill="url(#a)" d="M113.059 30.749c6.872 0 10.309 0 13.433-.949a21.998 21.998 0 0 0 7.364-3.88c2.549-2.042 4.491-4.876 8.376-10.546 3.885-5.669 5.828-8.504 8.376-10.545a21.998 21.998 0 0 1 7.364-3.88C161.097 0 164.533 0 171.406 0h426.04c5.84 0 8.76 0 11.483.708a22.005 22.005 0 0 1 6.57 2.922c2.349 1.548 4.304 3.717 8.215 8.054 3.911 4.338 5.867 6.507 8.216 8.055a21.993 21.993 0 0 0 6.57 2.922c2.723.708 5.643.708 11.483.708H670.6c14.403 0 21.605 0 26.895 3.242a22.001 22.001 0 0 1 7.263 7.263C708 39.164 708 46.366 708 60.769v113.382c0 14.403 0 21.604-3.242 26.895a22.003 22.003 0 0 1-7.263 7.263c-5.29 3.242-12.492 3.242-26.895 3.242H339.807c-1.982 0-2.972 0-3.918.081a22.005 22.005 0 0 0-13.519 6.221c-.677.665-1.322 1.417-2.611 2.922-1.289 1.505-1.934 2.258-2.611 2.923a21.999 21.999 0 0 1-13.519 6.22c-.946.082-1.937.082-3.918.082H83.319a18.3 18.3 0 0 1-15.89-9.225 18.299 18.299 0 0 0-15.891-9.224H37.4c-14.403 0-21.605 0-26.895-3.242a22.002 22.002 0 0 1-7.263-7.263C0 195.755 0 188.554 0 174.151V68.149c0-14.403 0-21.605 3.242-26.895a22 22 0 0 1 7.263-7.263c5.29-3.242 12.492-3.242 26.895-3.242h75.659Z"/><defs><radialGradient id="a" cx="0" cy="0" r="1" gradientTransform="matrix(354 0 0 115 354 115)" gradientUnits="userSpaceOnUse"><stop stop-color="#FAFCFE" stop-opacity="0"/><stop offset=".6" stop-color="#FAFCFE" stop-opacity=".3"/><stop offset="1" stop-color="#FAFCFE"/></radialGradient></defs></svg>