<svg xmlns="http://www.w3.org/2000/svg" fill="none" viewBox="0 0 1344 374"><path fill="#FAFCFE" d="M217.984 50c7.809 0 11.713 0 15.4-.553a50.002 50.002 0 0 0 26.564-12.767c2.735-2.534 5.174-5.583 10.052-11.68 4.878-6.097 7.317-9.146 10.052-11.68A50.002 50.002 0 0 1 306.616.553C310.303 0 314.207 0 322.016 0h814.394c7.51 0 11.26 0 14.85.525a49.987 49.987 0 0 1 21.61 8.628c2.97 2.095 5.69 4.68 11.13 9.847 5.44 5.168 8.16 7.752 11.13 9.847a49.988 49.988 0 0 0 21.61 8.628c3.59.525 7.34.525 14.85.525H1259c32.73 0 49.1 0 61.12 7.368a49.962 49.962 0 0 1 16.51 16.507C1344 73.898 1344 90.265 1344 123v136c0 32.734 0 49.101-7.37 61.125a49.962 49.962 0 0 1-16.51 16.507C1308.1 344 1291.73 344 1259 344H643.213c-.494 0-.741 0-.979.002a49.998 49.998 0 0 0-34.54 14.307c-.17.167-.345.342-.694.691a49.998 49.998 0 0 1-35.234 14.998c-.238.002-.485.002-.979.002H156.028A33.685 33.685 0 0 1 128 359a33.685 33.685 0 0 0-28.028-15H76.864c-25.049 0-37.573 0-47.342-4.386a50 50 0 0 1-25.136-25.136C0 304.709 0 292.185 0 267.136V135c0-32.734 0-49.102 7.368-61.125a50 50 0 0 1 16.507-16.507C35.898 50 52.265 50 85 50h132.984Z"/><path stroke="#F1F4F7" d="M420 15v359M450 15v359M480 15v359M510 15v359M540 15v359M570 15v359M600 15v317M630 15v317M660 15v317M690 15v317M720 15v317M750 15v317M780 15v317M810 15v317M840 15v317M870 15v317M900 15v317M930 15v317M960 15v317M990 15v317M1020 15v317M1050 15v317M1080 15v317M1110 15v317M1140 15v317M1170 45v285M1200 45v285M1230 60v270M1260 60v270M1290 60v270M1320 60v255M390 15v359M360 15v359M330 15v359M300 15v359M270 72v302M240 72v302M210 72v302M180 72v302M150 72v258M120 72v258M90 72v258M60 72v258M30 72v258M180 72v302M285 30h885M285 60h930M16 90h1327M15 120h1329M15 150h1329M15 180h1329M15 210h1329M15 240h1329M15 270h1329M15 300h1320"/><path fill="url(#a)" d="M217.984 50c7.809 0 11.713 0 15.4-.553a50.002 50.002 0 0 0 26.564-12.767c2.735-2.534 5.174-5.583 10.052-11.68 4.878-6.097 7.317-9.146 10.052-11.68A50.002 50.002 0 0 1 306.616.553C310.303 0 314.207 0 322.016 0h814.394c7.51 0 11.26 0 14.85.525a49.987 49.987 0 0 1 21.61 8.628c2.97 2.095 5.69 4.68 11.13 9.847 5.44 5.168 8.16 7.752 11.13 9.847a49.988 49.988 0 0 0 21.61 8.628c3.59.525 7.34.525 14.85.525H1259c32.73 0 49.1 0 61.12 7.368a49.962 49.962 0 0 1 16.51 16.507C1344 73.898 1344 90.265 1344 123v136c0 32.734 0 49.101-7.37 61.125a49.962 49.962 0 0 1-16.51 16.507C1308.1 344 1291.73 344 1259 344H643.213c-.494 0-.741 0-.979.002a49.998 49.998 0 0 0-34.54 14.307c-.17.167-.345.342-.694.691a49.998 49.998 0 0 1-35.234 14.998c-.238.002-.485.002-.979.002H156.028A33.685 33.685 0 0 1 128 359a33.685 33.685 0 0 0-28.028-15H76.864c-25.049 0-37.573 0-47.342-4.386a50 50 0 0 1-25.136-25.136C0 304.709 0 292.185 0 267.136V135c0-32.734 0-49.102 7.368-61.125a50 50 0 0 1 16.507-16.507C35.898 50 52.265 50 85 50h132.984Z"/><defs><radialGradient id="a" cx="0" cy="0" r="1" gradientTransform="matrix(672 0 0 187 672 187)" gradientUnits="userSpaceOnUse"><stop stop-color="#FAFCFE" stop-opacity="0"/><stop offset=".6" stop-color="#FAFCFE" stop-opacity=".3"/><stop offset="1" stop-color="#FAFCFE"/></radialGradient></defs></svg>