<svg width="330" height="200" viewBox="0 0 330 200" fill="none" xmlns="http://www.w3.org/2000/svg">
<path d="M47.1416 26.738C51.4311 26.738 53.5759 26.738 55.4642 26.1975C58.4582 25.3406 61.081 23.5098 62.9177 20.9949C64.0761 19.4088 64.8156 17.3955 66.2946 13.369C67.7737 9.34246 68.5132 7.3292 69.6716 5.74307C71.5083 3.22814 74.1311 1.39739 77.1251 0.540457C79.0134 0 81.1582 0 85.4477 0H274.519C276.933 0 278.14 0 279.246 0.177938C282.988 0.780371 286.326 2.8746 288.497 5.98195C289.138 6.89975 289.664 7.98665 290.714 10.1604C291.765 12.3342 292.29 13.4211 292.931 14.3389C295.102 17.4463 298.441 19.5405 302.183 20.1429C303.288 20.3209 304.496 20.3209 306.91 20.3209H308.877C315.516 20.3209 318.835 20.3209 321.447 21.4239C324.806 22.8424 327.478 25.5153 328.897 28.874C330 31.4857 330 34.8052 330 41.4441V160.157C330 169.323 330 173.906 327.937 177.272C326.783 179.156 325.199 180.74 323.315 181.894C319.948 183.957 315.366 183.957 306.2 183.957H161.55C156.171 183.957 151.285 187.09 149.04 191.979C146.796 196.867 141.91 200 136.531 200H42.2727C37.2879 200 32.8876 196.745 31.4286 191.979C29.9696 187.212 25.5692 183.957 20.5844 183.957H16.6542C14.1886 183.957 12.9558 183.957 11.9231 183.802C5.84146 182.89 1.0672 178.116 0.154907 172.034C0 171.001 0 169.769 0 167.303V50.538C0 41.3724 0 36.7896 2.06304 33.423C3.21742 31.5392 4.80124 29.9554 6.68502 28.801C10.0516 26.738 14.6344 26.738 23.8 26.738H47.1416Z" fill="#FAFCFE"/>
<path d="M15 34V179" stroke="#F1F4F7" stroke-width="0.5"/>
<path d="M27 34V179" stroke="#F1F4F7" stroke-width="0.5"/>
<path d="M39 34V190" stroke="#F1F4F7" stroke-width="0.5"/>
<path d="M51 34V200" stroke="#F1F4F7" stroke-width="0.5"/>
<path d="M63 28V200" stroke="#F1F4F7" stroke-width="0.5"/>
<path d="M75 10L75 200" stroke="#F1F4F7" stroke-width="0.5"/>
<path d="M87 0V200" stroke="#F1F4F7" stroke-width="0.5"/>
<path d="M99 0V200" stroke="#F1F4F7" stroke-width="0.5"/>
<path d="M111 0V200" stroke="#F1F4F7" stroke-width="0.5"/>
<path d="M123 0V200" stroke="#F1F4F7" stroke-width="0.5"/>
<path d="M135 0V200" stroke="#F1F4F7" stroke-width="0.5"/>
<path d="M147 0V190" stroke="#F1F4F7" stroke-width="0.5"/>
<path d="M159 0V178" stroke="#F1F4F7" stroke-width="0.5"/>
<path d="M171 0V178" stroke="#F1F4F7" stroke-width="0.5"/>
<path d="M183 0V178" stroke="#F1F4F7" stroke-width="0.5"/>
<path d="M195 0V178" stroke="#F1F4F7" stroke-width="0.5"/>
<path d="M207 0V178" stroke="#F1F4F7" stroke-width="0.5"/>
<path d="M219 0V178" stroke="#F1F4F7" stroke-width="0.5"/>
<path d="M231 0V178" stroke="#F1F4F7" stroke-width="0.5"/>
<path d="M243 0V178" stroke="#F1F4F7" stroke-width="0.5"/>
<path d="M255 0V178" stroke="#F1F4F7" stroke-width="0.5"/>
<path d="M267 0V178" stroke="#F1F4F7" stroke-width="0.5"/>
<path d="M279 10L279 178" stroke="#F1F4F7" stroke-width="0.5"/>
<path d="M291 20V178" stroke="#F1F4F7" stroke-width="0.5"/>
<path d="M303 24V178" stroke="#F1F4F7" stroke-width="0.5"/>
<path d="M315 24V178" stroke="#F1F4F7" stroke-width="0.5"/>
<path d="M45 196L141 196" stroke="#F1F4F7" stroke-width="0.5"/>
<path d="M33 184L147 184" stroke="#F1F4F7" stroke-width="0.5"/>
<path d="M9 172L327 172" stroke="#F1F4F7" stroke-width="0.5"/>
<path d="M3 160L327 160" stroke="#F1F4F7" stroke-width="0.5"/>
<path d="M3 148L327 148" stroke="#F1F4F7" stroke-width="0.5"/>
<path d="M3 136L327 136" stroke="#F1F4F7" stroke-width="0.5"/>
<path d="M3 124L327 124" stroke="#F1F4F7" stroke-width="0.5"/>
<path d="M3 112L327 112" stroke="#F1F4F7" stroke-width="0.5"/>
<path d="M3 100L327 100" stroke="#F1F4F7" stroke-width="0.5"/>
<path d="M3 88L327 88" stroke="#F1F4F7" stroke-width="0.5"/>
<path d="M3 76L327 76" stroke="#F1F4F7" stroke-width="0.5"/>
<path d="M3 64L327 64" stroke="#F1F4F7" stroke-width="0.5"/>
<path d="M3 52L327 52" stroke="#F1F4F7" stroke-width="0.5"/>
<path d="M3 40L327 40" stroke="#F1F4F7" stroke-width="0.5"/>
<path d="M69 28L321 28" stroke="#F1F4F7" stroke-width="0.5"/>
<path d="M69 16L285 16" stroke="#F1F4F7" stroke-width="0.5"/>
<path d="M81 4L273 3.99998" stroke="#F1F4F7" stroke-width="0.5"/>
<path d="M47.1416 26.738C51.4311 26.738 53.5759 26.738 55.4642 26.1975C58.4582 25.3406 61.081 23.5098 62.9177 20.9949C64.0761 19.4088 64.8156 17.3955 66.2946 13.369C67.7737 9.34246 68.5132 7.3292 69.6716 5.74307C71.5083 3.22814 74.1311 1.39739 77.1251 0.540456C79.0134 0 81.1581 0 85.4477 0H274.519C276.933 0 278.14 0 279.246 0.177939C282.988 0.780372 286.326 2.8746 288.497 5.98194C289.138 6.89975 289.664 7.98664 290.714 10.1604C291.765 12.3342 292.29 13.4211 292.931 14.3389C295.102 17.4463 298.441 19.5405 302.183 20.1429C303.288 20.3209 304.496 20.3209 306.91 20.3209H308.877C315.516 20.3209 318.835 20.3209 321.447 21.4239C324.806 22.8424 327.478 25.5153 328.897 28.874C330 31.4857 330 34.8052 330 41.4441V160.157C330 169.323 330 173.906 327.937 177.272C326.783 179.156 325.199 180.74 323.315 181.894C319.948 183.957 315.366 183.957 306.2 183.957H161.55C156.171 183.957 151.285 187.09 149.04 191.979C146.796 196.867 141.91 200 136.531 200H42.2727C37.2879 200 32.8876 196.745 31.4286 191.979C29.9696 187.212 25.5692 183.957 20.5844 183.957H16.6542C14.1886 183.957 12.9558 183.957 11.9231 183.802C5.84146 182.89 1.0672 178.116 0.154907 172.034C0 171.001 0 169.769 0 167.303V50.538C0 41.3724 0 36.7896 2.06304 33.423C3.21742 31.5392 4.80124 29.9554 6.68502 28.801C10.0516 26.738 14.6344 26.738 23.8 26.738H47.1416Z" fill="url(#paint0_radial_1502_24041)"/>
<defs>
<radialGradient id="paint0_radial_1502_24041" cx="0" cy="0" r="1" gradientUnits="userSpaceOnUse" gradientTransform="translate(165 100) scale(165 100)">
<stop stop-color="#FAFCFE" stop-opacity="0"/>
<stop offset="0.6" stop-color="#FAFCFE" stop-opacity="0.3"/>
<stop offset="1" stop-color="#FAFCFE"/>
</radialGradient>
</defs>
</svg>
