<svg xmlns="http://www.w3.org/2000/svg" fill="none" viewBox="0 0 54 59"><mask id="a" width="54" height="59" x="0" y="0" fill="#000" maskUnits="userSpaceOnUse"><path fill="#fff" d="M0 0h54v59H0z"/><path fill-rule="evenodd" d="M11.431 11.624A2.574 2.574 0 0 1 8.857 9.05V6.56h-3.62a2.545 2.545 0 0 0-2.544 2.546v7.858h9.161a.846.846 0 0 1 0 1.693H2.693V51.16a2.545 2.545 0 0 0 2.545 2.545h32.929a1.932 1.932 0 0 0 1.932-1.932v-5.65a3.625 3.625 0 0 1 3.625-3.626h5.65a1.932 1.932 0 0 0 1.933-1.932V18.657H15.24a.846.846 0 1 1 0-1.693h36.067V9.106a2.545 2.545 0 0 0-2.545-2.545H41.299V9.05c0 .486.395.88.881.88a.846.846 0 1 1 0 1.694 2.574 2.574 0 0 1-2.574-2.574V6.56H13.573a.855.855 0 0 1-.052 0H10.55v2.49c0 .486.394.88.881.88a.846.846 0 1 1 0 1.694Zm37.33-6.756h-3.618V3.574A2.574 2.574 0 0 0 42.569 1h-.389a2.574 2.574 0 0 0-2.574 2.574v1.294H14.394V3.574A2.574 2.574 0 0 0 11.82 1h-.389a2.574 2.574 0 0 0-2.574 2.574v1.294h-3.62A4.238 4.238 0 0 0 1 9.106v45.446a4.232 4.232 0 0 0 4.232 4.232h43.536A4.232 4.232 0 0 0 53 54.552V9.106a4.238 4.238 0 0 0-4.238-4.238Zm-5.31-1.294v1.294h-2.152V3.574c0-.487.395-.881.881-.881h.389c.487 0 .881.394.881.881ZM12.7 4.868V3.574a.881.881 0 0 0-.881-.881h-.389a.881.881 0 0 0-.881.881v1.294h2.15Zm-7.463 50.53a4.22 4.22 0 0 1-2.545-.849v.003a2.54 2.54 0 0 0 2.54 2.54h43.535a2.54 2.54 0 0 0 2.539-2.54v-9.149l-8.754 8.754a4.238 4.238 0 0 1-2.996 1.241H5.237ZM50.226 44.09l-8.535 8.534c.066-.273.101-.558.101-.851v-5.65c0-1.068.865-1.933 1.932-1.933h5.65c.294 0 .58-.035.852-.1ZM7.731 29.379c-.912 0-1.652-.74-1.652-1.653v-4.03c0-.913.74-1.653 1.652-1.653h4.031c.913 0 1.653.74 1.653 1.652v4.031c0 .913-.74 1.653-1.653 1.653h-4.03Zm.04-5.643v3.95h3.95v-3.95h-3.95Zm9.81 3.99c0 .913.74 1.653 1.652 1.653h4.031c.913 0 1.653-.74 1.653-1.653v-4.03c0-.913-.74-1.653-1.653-1.653h-4.03c-.913 0-1.653.74-1.653 1.652v4.031Zm1.693-.04v-3.95h3.95v3.95h-3.95Zm11.462 1.693c-.913 0-1.653-.74-1.653-1.653v-4.03c0-.913.74-1.653 1.653-1.653h4.03c.913 0 1.653.74 1.653 1.652v4.031c0 .913-.74 1.653-1.653 1.653h-4.03Zm.04-5.643v3.95h3.95v-3.95h-3.95Zm9.81 3.99c0 .913.74 1.653 1.652 1.653h4.03c.913 0 1.653-.74 1.653-1.653v-4.03c0-.913-.74-1.653-1.652-1.653h-4.031c-.913 0-1.653.74-1.653 1.652v4.031Zm1.692-.04v-3.95h3.95v3.95h-3.95ZM7.731 39.849c-.912 0-1.652-.74-1.652-1.652v-4.031c0-.913.74-1.653 1.652-1.653h4.031c.913 0 1.653.74 1.653 1.653v4.03c0 .913-.74 1.653-1.653 1.653h-4.03Zm.04-5.643v3.95h3.95v-3.95h-3.95Zm9.81 3.99c0 .913.74 1.653 1.652 1.653h4.031c.913 0 1.653-.74 1.653-1.652v-4.031c0-.913-.74-1.653-1.653-1.653h-4.03c-.913 0-1.653.74-1.653 1.653v4.03Zm1.693-.04v-3.95h3.95v3.95h-3.95Zm11.462 1.693c-.913 0-1.653-.74-1.653-1.652v-4.031c0-.913.74-1.653 1.653-1.653h4.03c.913 0 1.653.74 1.653 1.653v4.03c0 .913-.74 1.653-1.653 1.653h-4.03Zm.04-5.643v3.95h3.95v-3.95h-3.95Zm9.81 4.242c0 .913.74 1.653 1.652 1.653h4.03c.913 0 1.653-.74 1.653-1.653v-4.03c0-.913-.74-1.653-1.652-1.653h-4.031c-.913 0-1.653.74-1.653 1.652v4.031Zm1.692-.04v-3.95h3.95v3.95h-3.95ZM7.731 50.32c-.912 0-1.652-.74-1.652-1.653v-4.03c0-.913.74-1.653 1.652-1.653h4.031c.913 0 1.653.74 1.653 1.652v4.031c0 .913-.74 1.653-1.653 1.653h-4.03Zm.04-5.643v3.95h3.95v-3.95h-3.95Zm9.81 3.99c0 .913.74 1.653 1.652 1.653h4.031c.913 0 1.653-.74 1.653-1.653v-4.03c0-.913-.74-1.653-1.653-1.653h-4.03c-.913 0-1.653.74-1.653 1.652v4.031Zm1.693-.04v-3.95h3.95v3.95h-3.95Zm11.462 1.693c-.913 0-1.653-.74-1.653-1.653a.847.847 0 0 1 1.692-.04h3.951v-3.95h-3.95v1.122a.846.846 0 1 1-1.693 0v-1.163c0-.913.74-1.652 1.653-1.652h4.03c.913 0 1.653.74 1.653 1.652v4.031c0 .913-.74 1.653-1.653 1.653h-4.03Z" clip-rule="evenodd"/></mask><path fill="#052039" fill-rule="evenodd" d="M11.431 11.624A2.574 2.574 0 0 1 8.857 9.05V6.56h-3.62a2.545 2.545 0 0 0-2.544 2.546v7.858h9.161a.846.846 0 0 1 0 1.693H2.693V51.16a2.545 2.545 0 0 0 2.545 2.545h32.929a1.932 1.932 0 0 0 1.932-1.932v-5.65a3.625 3.625 0 0 1 3.625-3.626h5.65a1.932 1.932 0 0 0 1.933-1.932V18.657H15.24a.846.846 0 1 1 0-1.693h36.067V9.106a2.545 2.545 0 0 0-2.545-2.545H41.299V9.05c0 .486.395.88.881.88a.846.846 0 1 1 0 1.694 2.574 2.574 0 0 1-2.574-2.574V6.56H13.573a.855.855 0 0 1-.052 0H10.55v2.49c0 .486.394.88.881.88a.846.846 0 1 1 0 1.694Zm37.33-6.756h-3.618V3.574A2.574 2.574 0 0 0 42.569 1h-.389a2.574 2.574 0 0 0-2.574 2.574v1.294H14.394V3.574A2.574 2.574 0 0 0 11.82 1h-.389a2.574 2.574 0 0 0-2.574 2.574v1.294h-3.62A4.238 4.238 0 0 0 1 9.106v45.446a4.232 4.232 0 0 0 4.232 4.232h43.536A4.232 4.232 0 0 0 53 54.552V9.106a4.238 4.238 0 0 0-4.238-4.238Zm-5.31-1.294v1.294h-2.152V3.574c0-.487.395-.881.881-.881h.389c.487 0 .881.394.881.881ZM12.7 4.868V3.574a.881.881 0 0 0-.881-.881h-.389a.881.881 0 0 0-.881.881v1.294h2.15Zm-7.463 50.53a4.22 4.22 0 0 1-2.545-.849v.003a2.54 2.54 0 0 0 2.54 2.54h43.535a2.54 2.54 0 0 0 2.539-2.54v-9.149l-8.754 8.754a4.238 4.238 0 0 1-2.996 1.241H5.237ZM50.226 44.09l-8.535 8.534c.066-.273.101-.558.101-.851v-5.65c0-1.068.865-1.933 1.932-1.933h5.65c.294 0 .58-.035.852-.1ZM7.731 29.379c-.912 0-1.652-.74-1.652-1.653v-4.03c0-.913.74-1.653 1.652-1.653h4.031c.913 0 1.653.74 1.653 1.652v4.031c0 .913-.74 1.653-1.653 1.653h-4.03Zm.04-5.643v3.95h3.95v-3.95h-3.95Zm9.81 3.99c0 .913.74 1.653 1.652 1.653h4.031c.913 0 1.653-.74 1.653-1.653v-4.03c0-.913-.74-1.653-1.653-1.653h-4.03c-.913 0-1.653.74-1.653 1.652v4.031Zm1.693-.04v-3.95h3.95v3.95h-3.95Zm11.462 1.693c-.913 0-1.653-.74-1.653-1.653v-4.03c0-.913.74-1.653 1.653-1.653h4.03c.913 0 1.653.74 1.653 1.652v4.031c0 .913-.74 1.653-1.653 1.653h-4.03Zm.04-5.643v3.95h3.95v-3.95h-3.95Zm9.81 3.99c0 .913.74 1.653 1.652 1.653h4.03c.913 0 1.653-.74 1.653-1.653v-4.03c0-.913-.74-1.653-1.652-1.653h-4.031c-.913 0-1.653.74-1.653 1.652v4.031Zm1.692-.04v-3.95h3.95v3.95h-3.95ZM7.731 39.849c-.912 0-1.652-.74-1.652-1.652v-4.031c0-.913.74-1.653 1.652-1.653h4.031c.913 0 1.653.74 1.653 1.653v4.03c0 .913-.74 1.653-1.653 1.653h-4.03Zm.04-5.643v3.95h3.95v-3.95h-3.95Zm9.81 3.99c0 .913.74 1.653 1.652 1.653h4.031c.913 0 1.653-.74 1.653-1.652v-4.031c0-.913-.74-1.653-1.653-1.653h-4.03c-.913 0-1.653.74-1.653 1.653v4.03Zm1.693-.04v-3.95h3.95v3.95h-3.95Zm11.462 1.693c-.913 0-1.653-.74-1.653-1.652v-4.031c0-.913.74-1.653 1.653-1.653h4.03c.913 0 1.653.74 1.653 1.653v4.03c0 .913-.74 1.653-1.653 1.653h-4.03Zm.04-5.643v3.95h3.95v-3.95h-3.95Zm9.81 4.242c0 .913.74 1.653 1.652 1.653h4.03c.913 0 1.653-.74 1.653-1.653v-4.03c0-.913-.74-1.653-1.652-1.653h-4.031c-.913 0-1.653.74-1.653 1.652v4.031Zm1.692-.04v-3.95h3.95v3.95h-3.95ZM7.731 50.32c-.912 0-1.652-.74-1.652-1.653v-4.03c0-.913.74-1.653 1.652-1.653h4.031c.913 0 1.653.74 1.653 1.652v4.031c0 .913-.74 1.653-1.653 1.653h-4.03Zm.04-5.643v3.95h3.95v-3.95h-3.95Zm9.81 3.99c0 .913.74 1.653 1.652 1.653h4.031c.913 0 1.653-.74 1.653-1.653v-4.03c0-.913-.74-1.653-1.653-1.653h-4.03c-.913 0-1.653.74-1.653 1.652v4.031Zm1.693-.04v-3.95h3.95v3.95h-3.95Zm11.462 1.693c-.913 0-1.653-.74-1.653-1.653a.847.847 0 0 1 1.692-.04h3.951v-3.95h-3.95v1.122a.846.846 0 1 1-1.693 0v-1.163c0-.913.74-1.652 1.653-1.652h4.03c.913 0 1.653.74 1.653 1.652v4.031c0 .913-.74 1.653-1.653 1.653h-4.03Z" clip-rule="evenodd"/><path fill="#052039" d="M8.857 6.56h.2a.2.2 0 0 0-.2-.2v.2ZM2.693 16.965h-.2c0 .11.09.2.2.2v-.2Zm0 1.693v-.2a.2.2 0 0 0-.2.2h.2Zm48.614 21.908-.2-.002v.002h.2Zm0-.015.2.002v-.002h-.2Zm0-21.893h.2a.2.2 0 0 0-.2-.2v.2Zm0-1.693v.2a.2.2 0 0 0 .2-.2h-.2ZM44.322 6.561v-.2h-.006l.006.2Zm-.026 0-.001.2h.002v-.2Zm-.012 0-.005.2h.003l.002-.2Zm-.013 0 .004-.2h-.004v.2Zm-2.972 0v-.2a.2.2 0 0 0-.2.2h.2Zm-1.693 0h.2a.2.2 0 0 0-.2-.2v.2Zm-26.033 0v-.2h-.006l.006.2Zm-.052 0 .006-.2h-.006v.2Zm-2.971 0v-.2a.2.2 0 0 0-.2.2h.2Zm34.593-1.693h-.2c0 .11.09.2.2.2v-.2Zm-5.537 0v.2a.2.2 0 0 0 .2-.2h-.2Zm-25.212 0h-.2c0 .11.09.2.2.2v-.2Zm-5.537 0v.2a.2.2 0 0 0 .2-.2h-.2Zm34.593 0v.2a.2.2 0 0 0 .2-.2h-.2Zm-2.15 0h-.2c0 .11.089.2.2.2v-.2Zm-28.6 0v.2a.2.2 0 0 0 .2-.2h-.2Zm-2.15 0h-.2c0 .11.09.2.2.2v-.2ZM2.693 54.549l.12-.16a.2.2 0 0 0-.32.16h.2Zm48.614-9.146h.2a.2.2 0 0 0-.341-.141l.141.141Zm-8.754 8.754.142.141-.142-.141Zm-.861-1.532-.195-.047a.2.2 0 0 0 .336.188l-.142-.142Zm8.534-8.535.142.141a.2.2 0 0 0-.188-.336l.046.195ZM7.772 27.686h-.2c0 .11.09.2.2.2v-.2Zm0-3.95v-.2a.2.2 0 0 0-.2.2h.2Zm3.95 3.95v.2a.2.2 0 0 0 .2-.2h-.2Zm0-3.95h.2a.2.2 0 0 0-.2-.2v.2Zm7.552 0v-.2a.2.2 0 0 0-.2.2h.2Zm0 3.95h-.2c0 .11.09.2.2.2v-.2Zm3.95-3.95h.2a.2.2 0 0 0-.2-.2v.2Zm0 3.95v.2a.2.2 0 0 0 .2-.2h-.2Zm7.552 0h-.2c0 .11.09.2.2.2v-.2Zm0-3.95v-.2a.2.2 0 0 0-.2.2h.2Zm3.95 3.95v.2a.2.2 0 0 0 .2-.2h-.2Zm0-3.95h.2a.2.2 0 0 0-.2-.2v.2Zm7.552 0v-.2a.2.2 0 0 0-.2.2h.2Zm0 3.95h-.2c0 .11.09.2.2.2v-.2Zm3.95-3.95h.2a.2.2 0 0 0-.2-.2v.2Zm0 3.95v.2a.2.2 0 0 0 .2-.2h-.2ZM7.772 38.156h-.2c0 .11.09.2.2.2v-.2Zm0-3.95v-.2a.2.2 0 0 0-.2.2h.2Zm3.95 3.95v.2a.2.2 0 0 0 .2-.2h-.2Zm0-3.95h.2a.2.2 0 0 0-.2-.2v.2Zm7.552 0v-.2a.2.2 0 0 0-.2.2h.2Zm0 3.95h-.2c0 .11.09.2.2.2v-.2Zm3.95-3.95h.2a.2.2 0 0 0-.2-.2v.2Zm0 3.95v.2a.2.2 0 0 0 .2-.2h-.2Zm7.552 0h-.2c0 .11.09.2.2.2v-.2Zm0-3.95v-.2a.2.2 0 0 0-.2.2h.2Zm3.95 3.95v.2a.2.2 0 0 0 .2-.2h-.2Zm0-3.95h.2a.2.2 0 0 0-.2-.2v.2Zm7.552.252v-.2a.2.2 0 0 0-.2.2h.2Zm0 3.95h-.2c0 .11.09.2.2.2v-.2Zm3.95-3.95h.2a.2.2 0 0 0-.2-.2v.2Zm0 3.95v.2a.2.2 0 0 0 .2-.2h-.2ZM7.772 48.627h-.2c0 .11.09.2.2.2v-.2Zm0-3.95v-.2a.2.2 0 0 0-.2.2h.2Zm3.95 3.95v.2a.2.2 0 0 0 .2-.2h-.2Zm0-3.95h.2a.2.2 0 0 0-.2-.2v.2Zm7.552 0v-.2a.2.2 0 0 0-.2.2h.2Zm0 3.95h-.2c0 .11.09.2.2.2v-.2Zm3.95-3.95h.2a.2.2 0 0 0-.2-.2v.2Zm0 3.95v.2a.2.2 0 0 0 .2-.2h-.2Zm7.551 0-.2.009a.2.2 0 0 0 .2.19v-.2Zm3.951 0v.2a.2.2 0 0 0 .2-.2h-.2Zm0-3.95h.2a.2.2 0 0 0-.2-.2v.2Zm-3.95 0v-.2a.2.2 0 0 0-.2.2h.2ZM8.657 9.05a2.774 2.774 0 0 0 2.774 2.774v-.4A2.374 2.374 0 0 1 9.057 9.05h-.4Zm0-2.49v2.49h.4V6.56h-.4Zm-3.42.2h3.62v-.4h-3.62v.4ZM2.894 9.107A2.345 2.345 0 0 1 5.238 6.76v-.4a2.745 2.745 0 0 0-2.745 2.745h.4Zm0 7.858V9.106h-.4v7.858h.4Zm8.961-.2H2.693v.4h9.161v-.4Zm1.047 1.047c0-.578-.469-1.047-1.047-1.047v.4c.357 0 .647.29.647.647h.4Zm-1.047 1.046c.578 0 1.047-.468 1.047-1.046h-.4c0 .357-.29.646-.647.646v.4Zm-9.161 0h9.161v-.4H2.693v.4Zm.2 30.985V18.657h-.4v31.185h.4Zm0 1.318v-1.318h-.4v1.318h.4Zm2.345 2.345a2.345 2.345 0 0 1-2.345-2.345h-.4a2.745 2.745 0 0 0 2.745 2.745v-.4Zm32.929 0H5.237v.4h32.93v-.4Zm1.732-1.732c0 .957-.775 1.732-1.732 1.732v.4a2.132 2.132 0 0 0 2.132-2.132h-.4Zm0-5.65v5.65h.4v-5.65h-.4Zm3.825-3.826a3.825 3.825 0 0 0-3.825 3.826h.4a3.425 3.425 0 0 1 3.425-3.426v-.4Zm5.65 0h-5.65v.4h5.65v-.4Zm1.733-1.732c0 .957-.776 1.732-1.732 1.732v.4a2.132 2.132 0 0 0 2.132-2.132h-.4Zm0-.016v.014l.4.004v-.015l-.4-.003Zm0-21.892V40.55h.4V18.657h-.4Zm-35.867.2h36.067v-.4H15.24v.4Zm-1.046-1.046c0 .578.468 1.046 1.046 1.046v-.4a.646.646 0 0 1-.646-.646h-.4Zm1.046-1.047c-.578 0-1.046.469-1.046 1.047h.4c0-.357.289-.647.646-.647v-.4Zm36.067 0H15.24v.4h36.067v-.4Zm-.2-7.658v7.858h.4V9.106h-.4ZM48.762 6.76a2.345 2.345 0 0 1 2.345 2.345h.4a2.745 2.745 0 0 0-2.745-2.745v.4Zm-4.44 0h4.44v-.4h-4.44v.4Zm-.026 0h.032l-.012-.4h-.02v.4Zm-.014 0h.013l.003-.4h-.013l-.002.4Zm-.016 0h.013l.01-.4h-.014l-.009.4Zm-2.967 0h2.972v-.4h-2.972v.4Zm.2 2.289V6.56h-.4v2.49h.4Zm.681.68a.681.681 0 0 1-.68-.68h-.4c0 .597.483 1.08 1.08 1.08v-.4Zm1.047 1.047c0-.578-.469-1.046-1.047-1.046v.4c.357 0 .647.29.647.646h.4Zm-1.047 1.047c.578 0 1.047-.469 1.047-1.047h-.4c0 .357-.29.647-.647.647v.4ZM39.406 9.05a2.774 2.774 0 0 0 2.774 2.774v-.4a2.374 2.374 0 0 1-2.374-2.374h-.4Zm0-2.49v2.49h.4V6.56h-.4Zm-25.833.2h26.033v-.4H13.573v.4Zm-.026.001h.032l-.012-.4h-.02v.4Zm-.032 0h.032v-.4h-.02l-.012.4Zm-2.965 0h2.971v-.4H10.55v.4Zm.2 2.289V6.56h-.4v2.49h.4Zm.681.68a.681.681 0 0 1-.681-.68h-.4c0 .597.484 1.08 1.081 1.08v-.4Zm1.046 1.047c0-.578-.468-1.046-1.046-1.046v.4c.357 0 .647.29.647.646h.4Zm-1.046 1.047c.578 0 1.046-.469 1.046-1.047h-.4c0 .357-.289.647-.646.647v.4Zm33.712-6.756h3.619v-.4h-3.62v.4Zm-.2-1.494v1.294h.4V3.574h-.4ZM42.569 1.2a2.374 2.374 0 0 1 2.374 2.374h.4A2.774 2.774 0 0 0 42.569.8v.4Zm-.389 0h.389V.8h-.389v.4Zm-2.374 2.374A2.374 2.374 0 0 1 42.18 1.2V.8a2.774 2.774 0 0 0-2.774 2.774h.4Zm0 1.294V3.574h-.4v1.294h.4Zm-25.412.2h25.212v-.4H14.394v.4Zm-.2-1.494v1.294h.4V3.574h-.4ZM11.82 1.2a2.374 2.374 0 0 1 2.374 2.374h.4A2.774 2.774 0 0 0 11.82.8v.4Zm-.389 0h.389V.8h-.389v.4ZM9.057 3.574A2.374 2.374 0 0 1 11.431 1.2V.8a2.774 2.774 0 0 0-2.774 2.774h.4Zm0 1.294V3.574h-.4v1.294h.4Zm-3.82.2h3.62v-.4h-3.62v.4ZM1.2 9.106a4.038 4.038 0 0 1 4.038-4.038v-.4A4.438 4.438 0 0 0 .8 9.106h.4Zm0 8.705V9.106H.8v8.705h.4Zm0 32.031V17.811H.8v32.031h.4Zm0 1.318v-1.318H.8v1.318h.4Zm0 3.392V51.16H.8v3.392h.4Zm4.032 4.032A4.032 4.032 0 0 1 1.2 54.552H.8a4.432 4.432 0 0 0 4.432 4.432v-.4Zm43.536 0H5.232v.4h43.536v-.4Zm4.032-4.032a4.032 4.032 0 0 1-4.032 4.032v.4a4.432 4.432 0 0 0 4.432-4.432h-.4Zm0-12.597v12.597h.4V41.955h-.4Zm0-1.255v1.255h.4V40.7h-.4Zm0-31.594V40.7h.4V9.106h-.4Zm-4.038-4.038A4.038 4.038 0 0 1 52.8 9.106h.4a4.438 4.438 0 0 0-4.438-4.438v.4Zm-5.112-.2V3.574h-.4v1.294h.4Zm-2.35.2h2.15v-.4H41.3v.4Zm-.2-1.494v1.294h.4V3.574h-.4Zm1.08-1.081c-.597 0-1.08.484-1.08 1.081h.4c0-.376.304-.681.68-.681v-.4Zm.389 0h-.389v.4h.389v-.4Zm1.081 1.081c0-.597-.484-1.081-1.081-1.081v.4c.376 0 .681.305.681.681h.4Zm-31.15 0v1.294h.4V3.574h-.4Zm-.68-.681c.376 0 .68.305.68.681h.4c0-.597-.483-1.081-1.08-1.081v.4Zm-.389 0h.389v-.4h-.389v.4Zm-.681.681c0-.376.305-.681.681-.681v-.4c-.597 0-1.081.484-1.081 1.081h.4Zm0 1.294V3.574h-.4v1.294h.4Zm1.95-.2h-2.15v.4h2.15v-.4ZM2.574 54.708a4.42 4.42 0 0 0 2.665.89v-.4c-.91 0-1.75-.3-2.425-.809l-.24.32Zm.32-.156v-.003h-.4v.003h.4Zm2.34 2.34a2.34 2.34 0 0 1-2.34-2.34h-.4a2.74 2.74 0 0 0 2.74 2.74v-.4Zm43.535 0H5.232v.4h43.536v-.4Zm2.339-2.34a2.34 2.34 0 0 1-2.34 2.34v.4a2.74 2.74 0 0 0 2.74-2.74h-.4Zm0-9.149v9.149h.4v-9.149h-.4Zm-8.412 8.895 8.754-8.753-.283-.283-8.754 8.753.283.283Zm-3.138 1.3a4.438 4.438 0 0 0 3.138-1.3l-.283-.283a4.038 4.038 0 0 1-2.855 1.183v.4Zm-1.39 0h1.39v-.4h-1.39v.4Zm-32.93 0h32.93v-.4H5.237v.4Zm36.596-2.832 8.535-8.535-.283-.283-8.535 8.535.283.283Zm-.24-.993c0 .277-.034.547-.096.805l.389.093c.07-.288.106-.589.106-.898h-.4Zm0-5.65v5.65h.4v-5.65h-.4Zm2.131-2.133a2.132 2.132 0 0 0-2.132 2.133h.4c0-.957.776-1.733 1.732-1.733v-.4Zm5.65 0h-5.65v.4h5.65v-.4Zm.806-.095a3.436 3.436 0 0 1-.805.095v.4c.309 0 .61-.037.898-.106l-.093-.389ZM5.879 27.726c0 1.023.83 1.853 1.852 1.853v-.4c-.802 0-1.452-.65-1.452-1.453h-.4Zm0-4.03v4.03h.4v-4.03h-.4Zm1.852-1.853c-1.023 0-1.852.83-1.852 1.852h.4c0-.802.65-1.452 1.452-1.452v-.4Zm4.031 0h-4.03v.4h4.03v-.4Zm1.853 1.852c0-1.023-.83-1.852-1.853-1.852v.4c.802 0 1.453.65 1.453 1.453h.4Zm0 4.031v-4.03h-.4v4.03h.4Zm-1.853 1.853c1.023 0 1.853-.83 1.853-1.853h-.4c0 .802-.65 1.453-1.453 1.453v.4Zm-4.03 0h4.03v-.4h-4.03v.4Zm.24-1.893v-3.95h-.4v3.95h.4Zm3.75-.2h-3.95v.4h3.95v-.4Zm-.2-3.75v3.95h.4v-3.95h-.4Zm-3.75.2h3.95v-.4h-3.95v.4Zm11.461 5.243c-.802 0-1.452-.65-1.452-1.453h-.4c0 1.023.83 1.853 1.852 1.853v-.4Zm4.031 0h-4.03v.4h4.03v-.4Zm1.453-1.453c0 .802-.65 1.453-1.453 1.453v.4c1.023 0 1.853-.83 1.853-1.853h-.4Zm0-4.03v4.03h.4v-4.03h-.4Zm-1.453-1.453c.803 0 1.453.65 1.453 1.453h.4c0-1.024-.83-1.853-1.853-1.853v.4Zm-4.03 0h4.03v-.4h-4.03v.4Zm-1.453 1.453c0-.803.65-1.453 1.453-1.453v-.4c-1.024 0-1.853.83-1.853 1.852h.4Zm0 4.03v-4.03h-.4v4.03h.4Zm1.293-3.99v3.95h.4v-3.95h-.4Zm4.15-.2h-3.95v.4h3.95v-.4Zm.2 4.15v-3.95h-.4v3.95h.4Zm-4.15.2h3.95v-.4h-3.95v.4Zm9.61-.16c0 1.023.829 1.853 1.852 1.853v-.4c-.803 0-1.453-.65-1.453-1.453h-.4Zm0-4.03v4.03h.4v-4.03h-.4Zm1.852-1.853c-1.023 0-1.853.83-1.853 1.852h.4c0-.802.65-1.452 1.453-1.452v-.4Zm4.03 0h-4.03v.4h4.03v-.4Zm1.853 1.852c0-1.023-.83-1.852-1.853-1.852v.4c.803 0 1.453.65 1.453 1.453h.4Zm0 4.031v-4.03h-.4v4.03h.4Zm-1.853 1.853c1.024 0 1.853-.83 1.853-1.853h-.4c0 .802-.65 1.453-1.453 1.453v.4Zm-4.03 0h4.03v-.4h-4.03v.4Zm.24-1.893v-3.95h-.4v3.95h.4Zm3.75-.2h-3.95v.4h3.95v-.4Zm-.2-3.75v3.95h.4v-3.95h-.4Zm-3.75.2h3.95v-.4h-3.95v.4Zm11.462 5.243c-.802 0-1.453-.65-1.453-1.453h-.4c0 1.023.83 1.853 1.853 1.853v-.4Zm4.03 0h-4.03v.4h4.03v-.4Zm1.453-1.453c0 .802-.65 1.453-1.452 1.453v.4c1.023 0 1.852-.83 1.852-1.853h-.4Zm0-4.03v4.03h.4v-4.03h-.4Zm-1.452-1.453c.802 0 1.452.65 1.452 1.453h.4c0-1.024-.83-1.853-1.852-1.853v.4Zm-4.031 0h4.03v-.4h-4.03v.4Zm-1.453 1.453c0-.803.65-1.453 1.453-1.453v-.4c-1.023 0-1.853.83-1.853 1.852h.4Zm0 4.03v-4.03h-.4v4.03h.4Zm1.293-3.99v3.95h.4v-3.95h-.4Zm4.15-.2h-3.95v.4h3.95v-.4Zm.2 4.15v-3.95h-.4v3.95h.4Zm-4.15.2h3.95v-.4h-3.95v.4Zm-36.4 10.31c0 1.024.83 1.853 1.853 1.853v-.4c-.802 0-1.452-.65-1.452-1.452h-.4Zm0-4.03v4.03h.4v-4.03h-.4Zm1.853-1.853c-1.023 0-1.852.83-1.852 1.853h.4c0-.802.65-1.453 1.452-1.453v-.4Zm4.031 0h-4.03v.4h4.03v-.4Zm1.853 1.853c0-1.023-.83-1.853-1.853-1.853v.4c.802 0 1.453.65 1.453 1.453h.4Zm0 4.03v-4.03h-.4v4.03h.4Zm-1.853 1.853c1.023 0 1.853-.83 1.853-1.852h-.4c0 .802-.65 1.452-1.453 1.452v.4Zm-4.03 0h4.03v-.4h-4.03v.4Zm.24-1.893v-3.95h-.4v3.95h.4Zm3.75-.2h-3.95v.4h3.95v-.4Zm-.2-3.75v3.95h.4v-3.95h-.4Zm-3.75.2h3.95v-.4h-3.95v.4Zm11.461 5.243c-.802 0-1.452-.65-1.452-1.452h-.4c0 1.023.83 1.852 1.852 1.852v-.4Zm4.031 0h-4.03v.4h4.03v-.4Zm1.453-1.452c0 .802-.65 1.452-1.453 1.452v.4c1.023 0 1.853-.83 1.853-1.852h-.4Zm0-4.031v4.03h.4v-4.03h-.4Zm-1.453-1.453c.803 0 1.453.65 1.453 1.453h.4c0-1.023-.83-1.853-1.853-1.853v.4Zm-4.03 0h4.03v-.4h-4.03v.4Zm-1.453 1.453c0-.802.65-1.453 1.453-1.453v-.4c-1.024 0-1.853.83-1.853 1.853h.4Zm0 4.03v-4.03h-.4v4.03h.4Zm1.293-3.99v3.95h.4v-3.95h-.4Zm4.15-.2h-3.95v.4h3.95v-.4Zm.2 4.15v-3.95h-.4v3.95h.4Zm-4.15.2h3.95v-.4h-3.95v.4Zm9.61-.16c0 1.024.829 1.853 1.852 1.853v-.4c-.803 0-1.453-.65-1.453-1.452h-.4Zm0-4.03v4.03h.4v-4.03h-.4Zm1.852-1.853c-1.023 0-1.853.83-1.853 1.853h.4c0-.802.65-1.453 1.453-1.453v-.4Zm4.03 0h-4.03v.4h4.03v-.4Zm1.853 1.853c0-1.023-.83-1.853-1.853-1.853v.4c.803 0 1.453.65 1.453 1.453h.4Zm0 4.03v-4.03h-.4v4.03h.4Zm-1.853 1.853c1.024 0 1.853-.83 1.853-1.852h-.4c0 .802-.65 1.452-1.453 1.452v.4Zm-4.03 0h4.03v-.4h-4.03v.4Zm.24-1.893v-3.95h-.4v3.95h.4Zm3.75-.2h-3.95v.4h3.95v-.4Zm-.2-3.75v3.95h.4v-3.95h-.4Zm-3.75.2h3.95v-.4h-3.95v.4Zm11.462 5.495c-.802 0-1.453-.65-1.453-1.453h-.4c0 1.023.83 1.853 1.853 1.853v-.4Zm4.03 0h-4.03v.4h4.03v-.4Zm1.453-1.453c0 .802-.65 1.453-1.452 1.453v.4c1.023 0 1.852-.83 1.852-1.853h-.4Zm0-4.03v4.03h.4v-4.03h-.4Zm-1.452-1.453c.802 0 1.452.65 1.452 1.452h.4c0-1.023-.83-1.852-1.852-1.852v.4Zm-4.031 0h4.03v-.4h-4.03v.4Zm-1.453 1.452c0-.802.65-1.452 1.453-1.452v-.4c-1.023 0-1.853.83-1.853 1.852h.4Zm0 4.031v-4.03h-.4v4.03h.4Zm1.293-3.99v3.95h.4v-3.95h-.4Zm4.15-.2h-3.95v.4h3.95v-.4Zm.2 4.15v-3.95h-.4v3.95h.4Zm-4.15.2h3.95v-.4h-3.95v.4Zm-36.4 10.059c0 1.023.83 1.853 1.853 1.853v-.4c-.802 0-1.452-.65-1.452-1.453h-.4Zm0-4.03v4.03h.4v-4.03h-.4Zm1.853-1.853c-1.023 0-1.852.83-1.852 1.852h.4c0-.802.65-1.452 1.452-1.452v-.4Zm4.031 0h-4.03v.4h4.03v-.4Zm1.853 1.852c0-1.023-.83-1.852-1.853-1.852v.4c.802 0 1.453.65 1.453 1.452h.4Zm0 4.031v-4.03h-.4v4.03h.4Zm-1.853 1.853c1.023 0 1.853-.83 1.853-1.853h-.4c0 .802-.65 1.453-1.453 1.453v.4Zm-4.03 0h4.03v-.4h-4.03v.4Zm.24-1.893v-3.95h-.4v3.95h.4Zm3.75-.2h-3.95v.4h3.95v-.4Zm-.2-3.75v3.95h.4v-3.95h-.4Zm-3.75.2h3.95v-.4h-3.95v.4Zm11.461 5.243c-.802 0-1.452-.65-1.452-1.453h-.4c0 1.023.83 1.853 1.852 1.853v-.4Zm4.031 0h-4.03v.4h4.03v-.4Zm1.453-1.453c0 .802-.65 1.453-1.453 1.453v.4c1.023 0 1.853-.83 1.853-1.853h-.4Zm0-4.03v4.03h.4v-4.03h-.4Zm-1.453-1.453c.803 0 1.453.65 1.453 1.452h.4c0-1.023-.83-1.852-1.853-1.852v.4Zm-4.03 0h4.03v-.4h-4.03v.4Zm-1.453 1.452c0-.802.65-1.452 1.453-1.452v-.4c-1.024 0-1.853.83-1.853 1.852h.4Zm0 4.031v-4.03h-.4v4.03h.4Zm1.293-3.99v3.95h.4v-3.95h-.4Zm4.15-.2h-3.95v.4h3.95v-.4Zm.2 4.15v-3.95h-.4v3.95h.4Zm-4.15.2h3.95v-.4h-3.95v.4Zm9.61-.16c0 1.023.829 1.853 1.852 1.853v-.4c-.803 0-1.453-.65-1.453-1.453h-.4Zm1.046-1.047c-.578 0-1.047.469-1.047 1.047h.4c0-.357.29-.647.647-.647v-.4Zm1.045.997a1.047 1.047 0 0 0-1.045-.996v.4c.346 0 .63.272.645.615l.4-.019Zm3.751-.19h-3.95v.4h3.95v-.4Zm-.2-3.75v3.95h.4v-3.95h-.4Zm-3.75.2h3.95v-.4h-3.95v.4Zm.2.922v-1.122h-.4v1.122h.4Zm-1.046 1.046c.578 0 1.046-.468 1.046-1.046h-.4c0 .357-.29.646-.646.646v.4ZM28.883 45.8c0 .578.469 1.046 1.047 1.046v-.4a.647.647 0 0 1-.647-.646h-.4Zm0-1.163V45.8h.4v-1.163h-.4Zm1.853-1.852c-1.023 0-1.853.829-1.853 1.852h.4c0-.802.65-1.452 1.453-1.452v-.4Zm4.03 0h-4.03v.4h4.03v-.4Zm1.853 1.852c0-1.023-.83-1.852-1.853-1.852v.4c.803 0 1.453.65 1.453 1.452h.4Zm0 4.031v-4.03h-.4v4.03h.4Zm-1.853 1.853c1.024 0 1.853-.83 1.853-1.853h-.4c0 .802-.65 1.453-1.453 1.453v.4Zm-4.03 0h4.03v-.4h-4.03v.4Z" mask="url(#a)"/></svg>