<svg xmlns="http://www.w3.org/2000/svg" fill="none" viewBox="0 0 58 59"><path fill="#052039" fill-rule="evenodd" d="M23.193 8.78a4.51 4.51 0 0 1-3.031 1.513c-3.015 0-5.203-2.433-5.203-5.79C14.959 2.339 16.526 0 19.965 0c1.824 0 4.35 1.94 4.35 5.582a4.51 4.51 0 0 1-1.122 3.197Zm-.749-3.198c0-2.588-1.642-3.71-2.479-3.71-2.312 0-3.135 1.359-3.135 2.63 0 2.344 1.339 3.92 3.332 3.92a2.667 2.667 0 0 0 2.282-2.84Zm21.52 33.65a.936.936 0 0 0 .936-.935v-13.97h5.614v5.914a.936.936 0 0 0 1.872 0v-6.85a.935.935 0 0 0-.936-.935h-3.743V11.228h9.357a.936.936 0 0 0 .749-1.497l-2.32-3.094 2.233-2.233a.936.936 0 0 0-.662-1.597H46.772a.935.935 0 0 0-.936.935v18.714h-1.871a.936.936 0 0 0-.936.936v14.905a.936.936 0 0 0 .936.936Zm3.743-34.554h7.099l-1.21 1.21a.936.936 0 0 0-.087 1.223l1.684 2.246h-7.486V4.678Zm-16.18 35.769a.935.935 0 0 1-1.597-.662v-8.907a.936.936 0 0 1 .935-.936h7.486a.936.936 0 0 1 .935.936v6.578a.935.935 0 1 1-1.87 0v-5.643H31.8v7.972a.936.936 0 0 1-.274.662Zm-27.523 4.74a.936.936 0 0 1 .662-.274h7.486a.936.936 0 0 1 .935.936.956.956 0 0 1-.935.959l-6.55-.024v2.32a.936.936 0 1 1-1.872 0V45.85c0-.248.099-.486.274-.662Zm7.212 10.954v-3.116a.936.936 0 1 1 1.871 0v4.052a.936.936 0 0 1-.935.935H4.666a.936.936 0 0 1-.935-.935v-.843a.937.937 0 0 1 1.87-.093h5.615Zm13.1-3.48v3.48H18.7v-2.583a.936.936 0 0 0-1.871 0v3.519a.936.936 0 0 0 .936.935h7.485a.936.936 0 0 0 .936-.935V52.66a.936.936 0 0 0-1.872 0ZM38.35 43.2a.936.936 0 0 0-.936.935v12.005h-5.614v-7.972a.936.936 0 0 0-1.871 0v8.908a.936.936 0 0 0 .935.935h7.486a.936.936 0 0 0 .935-.935v-12.94a.935.935 0 0 0-.935-.937Zm12.438-4.002a.936.936 0 0 1 1.597.661v17.217a.936.936 0 0 1-.936.935h-7.485a.936.936 0 0 1-.936-.935V45.259a.936.936 0 0 1 1.871 0v10.882h5.614v-16.28c0-.249.099-.487.274-.662Zm3.468-11.128h2.807a.946.946 0 0 1 .936.935v2.807a.936.936 0 0 1-1.871 0v-.424L45.582 42.742a.927.927 0 0 1-.869.28l-8.925-1.785-13.695 10.957a.935.935 0 0 1-.914.146l-7.134-2.676L1.292 55.13a.935.935 0 0 1-.737-1.72l13.1-5.613a.936.936 0 0 1 .697-.017l6.987 2.62 13.624-10.895a.93.93 0 0 1 .768-.188l8.84 1.769 10.348-11.144h-.662a.936.936 0 0 1 0-1.871ZM21.256 17.138a.936.936 0 0 0-1.323 1.323l.914.914a.936.936 0 0 0 .661.274h3.743a.936.936 0 0 1 0 1.872h-3.414c-.117 0-.233-.019-.344-.056l-1.69-.562a.937.937 0 0 0-.592 1.778l1.691.561c.302.1.618.152.936.152h3.413a2.807 2.807 0 1 0 0-5.614h-3.355l-.64-.642ZM3.226 24.55a2.955 2.955 0 0 1-1.1-.354 2.808 2.808 0 0 1-1.067-3.852l2.878-4.999c.275-.48.68-.871 1.168-1.13 2.742-1.466 7.608-3.923 9.447-3.923 1.52 0 5.085 1.62 5.085 4.763 0 2.198-1.813 6.344-2.603 8.045l5.943 4.438a2.956 2.956 0 0 1 1.159 2.79l-1.024 7.1h2.139a.935.935 0 0 1 .936.935v5.913a.936.936 0 0 1-1.872 0v-4.978h-5.614v7.261a.935.935 0 1 1-1.871 0v-8.196a.926.926 0 0 1 .643-.877l.256-5.81C14.5 31.158 7.473 29.623 7.473 26.2c.002-1.805.267-3.6.787-5.329a.936.936 0 1 1 1.789.551 16.62 16.62 0 0 0-.705 4.778c0 1.45 4.905 3.111 9.488 3.752a.935.935 0 0 1 .805.968l-.288 6.508h1.871l1.062-7.367a1.08 1.08 0 0 0-.425-1.022L15.3 24.14a.935.935 0 0 1-.28-1.159c.764-1.564 2.747-6.046 2.747-7.927 0-1.839-2.527-2.891-3.214-2.891-.983 0-4.426 1.487-8.566 3.705a1.083 1.083 0 0 0-.427.412L2.68 21.278a.936.936 0 0 0 .356 1.284 1.086 1.086 0 0 0 1.477-.423l2.141-3.874a.93.93 0 0 1 .468-.417l4.679-1.871a.936.936 0 1 1 .694 1.738l-4.368 1.747-1.979 3.582a2.955 2.955 0 0 1-2.924 1.506Zm10.208 7.33a.936.936 0 0 0-1.216.52l-1.763 4.41-4.054 2.703a1.092 1.092 0 0 1-1.341-.1 1.043 1.043 0 0 1-.058-1.485l3.064-3.244a.923.923 0 0 0 .21-.355l1.023-3.163a.936.936 0 1 0-1.778-.577l-.96 2.964-2.92 3.088a2.914 2.914 0 0 0 .16 4.152 2.957 2.957 0 0 0 3.637.273l4.297-2.864a.936.936 0 0 0 .35-.43l1.871-4.679a.935.935 0 0 0-.522-1.213Z" clip-rule="evenodd"/></svg>