<svg xmlns="http://www.w3.org/2000/svg" fill="none" viewBox="0 0 60 60"><path stroke="#052039" stroke-linecap="round" stroke-linejoin="round" stroke-miterlimit="10" stroke-width="1.7" d="M52.243 6.198H45.3l-3.646 3.646v3.422"/><path stroke="#052039" stroke-linecap="round" stroke-linejoin="round" stroke-miterlimit="10" stroke-width="1.7" d="M38.148 13.383V9.119c0-.465.185-.91.513-1.239l4.673-4.673a1.752 1.752 0 0 1 1.239-.513h7.67m-.038 51.166h-6.906l-3.647-3.646V46.64"/><path stroke="#052039" stroke-linecap="round" stroke-linejoin="round" stroke-miterlimit="10" stroke-width="1.7" d="M38.148 46.6v4.34c0 .465.185.91.513 1.24l4.673 4.672a1.75 1.75 0 0 0 1.239.513h7.632m.038-38.842h-8.98m-.053-3.504h8.78m.215 30.022H43.2m.039-3.505h8.752m-15.481.082-3.633-4.83m2.677-2.269 3.948 5.249m.001-19.454-3.949 5.295m-2.679-2.269 3.635-4.875m-.056-1.695a3.505 3.505 0 1 1 7.01.001 3.505 3.505 0 0 1-7.01 0Zm0 26.518a3.505 3.505 0 1 1 7.01 0 3.505 3.505 0 0 1-7.01 0ZM33.11 9.702 30.25 17.1a1.165 1.165 0 0 1-1.016.744c-6.367.38-11.412 5.665-11.412 12.127 0 6.461 5.044 11.745 11.41 12.127.456.027.853.32 1.017.746l5.227 13.627c.071.187.095.39.066.587a2.349 2.349 0 0 1-2.323 2h-1.262m-4.089 0h-1.146a2.348 2.348 0 0 1-2.348-2.347v-2.53c0-1.011-.648-1.91-1.609-2.227a22.966 22.966 0 0 1-3.098-1.284c-.905-.456-2-.282-2.716.434l-1.79 1.79a2.349 2.349 0 0 1-3.32 0l-4.678-4.676a2.35 2.35 0 0 1 0-3.321l1.791-1.79c.716-.716.89-1.81.435-2.716-.5-.994-.93-2.029-1.284-3.098a2.346 2.346 0 0 0-2.228-1.608H3.348A2.348 2.348 0 0 1 1 33.335v-6.614a2.348 2.348 0 0 1 2.348-2.348h2.53c1.01 0 1.91-.648 2.227-1.608a22.979 22.979 0 0 1 1.284-3.098c.455-.906.281-2-.435-2.716l-1.79-1.79a2.351 2.351 0 0 1 0-3.321l4.677-4.678a2.35 2.35 0 0 1 3.32 0l1.79 1.791c.717.716 1.811.89 2.716.435.995-.5 2.03-.93 3.098-1.284a2.346 2.346 0 0 0 1.609-2.228V3.348A2.348 2.348 0 0 1 26.722 1h6.497a2.35 2.35 0 0 1 2.323 2c.03.198.005.401-.068.589l-.888 2.297"/><path stroke="#052039" stroke-linecap="round" stroke-linejoin="round" stroke-miterlimit="10" stroke-width="1.7" d="M19.148 43.663a17.332 17.332 0 0 0 10.823 3.773c.6 0 1.194-.03 1.78-.09m-.266-34.656a17.628 17.628 0 0 0-1.514-.066c-9.613 0-17.406 7.793-17.406 17.406 0 4.046 1.38 7.77 3.696 10.725"/><path stroke="#052039" stroke-linecap="round" stroke-linejoin="round" stroke-miterlimit="10" stroke-width="1.7" d="M22.962 30.03a7.009 7.009 0 1 1 14.018 0 7.009 7.009 0 0 1-14.018 0Zm29.028 0a3.505 3.505 0 1 1 7.01 0 3.505 3.505 0 0 1-7.01 0Zm0-13.26a3.505 3.505 0 1 1 7.01.001 3.505 3.505 0 0 1-7.01 0Zm.001-12.266a3.505 3.505 0 1 1 7.01 0 3.505 3.505 0 0 1-7.01 0Zm-.001 38.784a3.505 3.505 0 1 1 7.01 0 3.505 3.505 0 0 1-7.01 0Zm.001 12.266a3.505 3.505 0 1 1 7.01 0 3.505 3.505 0 0 1-7.01 0ZM36.98 28.277h5.724m9.286 3.505H36.98m9.925-3.505h5.086"/><path stroke="#052039" stroke-linecap="round" stroke-linejoin="round" stroke-miterlimit="10" stroke-width="1.7" d="M22.962 30.03a7.009 7.009 0 1 1 14.018 0 7.009 7.009 0 0 1-14.018 0Z"/></svg>