<svg xmlns="http://www.w3.org/2000/svg" fill="none" viewBox="0 0 68 44"><path fill="#052039" fill-rule="evenodd" d="m45.716 24.513-5.788-2.572a1.134 1.134 0 0 1-.673-1.036v-1.59a8.435 8.435 0 0 0 3.194-6.608V10.47a2.064 2.064 0 0 0 1.064-1.804v-.217C43.513 3.79 39.723 0 35.065 0h-2.13c-4.658 0-8.448 3.79-8.448 8.449v1.97c0 .673.29 1.283.795 1.673.085.067.176.125.27.175v.44c0 2.673 1.25 5.06 3.193 6.608v1.59c0 .447-.264.854-.673 1.035l-5.788 2.573a5.259 5.259 0 0 0-3.12 4.802v13.202a.996.996 0 1 0 1.992 0V29.315c0-.116.008-.23.02-.343l2.667 2.667c.415.415.644.967.644 1.555v9.323a.996.996 0 0 0 1.992 0v-9.324c0-1.119-.436-2.17-1.227-2.962l-3.18-3.18c.287-.297.63-.544 1.021-.717l5.691-2.53 4.22 4.22v14.493a.996.996 0 0 0 1.992 0V28.025l4.22-4.22 5.69 2.529c.392.173.736.42 1.022.717l-3.18 3.18a4.162 4.162 0 0 0-1.227 2.962v9.324a.996.996 0 0 0 1.992 0v-9.324c0-.587.229-1.139.644-1.554l2.667-2.667c.012.113.02.227.02.343v13.202a.996.996 0 0 0 1.992 0V29.315a5.26 5.26 0 0 0-3.12-4.802ZM34 26.203 30.297 22.5a3.12 3.12 0 0 0 .44-1.595V20.5a8.404 8.404 0 0 0 3.263.656 8.4 8.4 0 0 0 3.262-.656v.405c0 .574.16 1.122.44 1.595L34 26.203Zm0-7.04a6.464 6.464 0 0 1-6.456-6.456v-.448c.621-.246 1.228-.638 1.809-1.174A.996.996 0 0 0 28 9.62c-.498.46-.996.757-1.479.883a.163.163 0 0 1-.026.005.202.202 0 0 1-.017-.09v-1.97a6.464 6.464 0 0 1 6.456-6.457h2.13A6.464 6.464 0 0 1 41.52 8.45v.217c0 .032-.02.06-.045.065C35.511 9.91 32.52 7.69 31.51 6.68a.996.996 0 1 0-1.408 1.408c3.093 3.093 7.606 3.15 10.354 2.819v1.8A6.464 6.464 0 0 1 34 19.163Zm-16.038-.069v-2.13a7.383 7.383 0 0 0-3.386-6.202c.126-.403.192-.825.192-1.25 0-2.31-1.88-4.19-4.19-4.19a4.195 4.195 0 0 0-4 5.44 7.382 7.382 0 0 0-3.384 6.203v2.13a7.38 7.38 0 0 0 3.194 6.074v2.19c0 .433-.24.821-.627 1.014l-3.445 1.723A4.168 4.168 0 0 0 0 33.844v8.672a.996.996 0 0 0 1.992 0v-8.241l1.623 1.622c.415.415.644.967.644 1.554v5.065a.996.996 0 0 0 1.992 0v-5.065c0-1.119-.436-2.17-1.227-2.962L2.765 32.23l-.021-.02-.013-.01c.142-.125.301-.234.476-.322l3.445-1.723c.177-.088.341-.192.494-.308l2.436 2.435v10.234a.996.996 0 1 0 1.992 0V32.282l2.435-2.435c.154.116.318.22.494.308l.95.475a.992.992 0 0 0 1.337-.445.996.996 0 0 0-.446-1.336l-.95-.475a1.127 1.127 0 0 1-.626-1.014v-2.19a7.38 7.38 0 0 0 3.194-6.076Zm-7.384-11.78a2.2 2.2 0 0 1 2.163 2.59 7.359 7.359 0 0 0-4.323 0 2.212 2.212 0 0 1-.038-.392 2.2 2.2 0 0 1 2.198-2.197Zm0 4.26a5.398 5.398 0 0 1 5.392 5.391v.36c-4.148 1.27-6.619-1.884-6.725-2.022a.996.996 0 0 0-1.5-.107c-.952.95-1.883 1.41-2.555 1.63a5.397 5.397 0 0 1 5.388-5.253Zm0 18.887-2.302-2.302c.067-.257.104-.524.104-.8v-1.215a7.358 7.358 0 0 0 2.198.334c.765 0 1.503-.117 2.198-.334v1.216c0 .275.036.543.104.8l-2.302 2.301Zm0-5.975a5.398 5.398 0 0 1-5.392-5.392v-.206c.794-.183 1.972-.607 3.2-1.595.435.41 1.057.913 1.848 1.345.936.51 2.228.982 3.807.982.6 0 1.242-.07 1.92-.23a5.398 5.398 0 0 1-5.383 5.096Zm49.532.694 5.574 2.787A4.167 4.167 0 0 1 68 31.715v10.801a.996.996 0 0 1-1.992 0V31.715c0-.193-.026-.381-.073-.561l-1.55 1.55a2.184 2.184 0 0 0-.644 1.553v8.26a.996.996 0 0 1-1.992 0v-8.26c0-1.119.436-2.17 1.227-2.962l1.637-1.637-5.395-2.697a3.166 3.166 0 0 1-.494-.308l-2.435 2.436v13.427a.996.996 0 1 1-1.992 0V29.09l-2.435-2.436c-.154.116-.318.22-.494.309a.994.994 0 0 1-1.337-.446.996.996 0 0 1 .446-1.336c.386-.193.626-.582.626-1.014v-1.411a6.305 6.305 0 0 1-2.13-4.725v-1.135a.996.996 0 0 1-1.065-.994v-2.13a6.327 6.327 0 0 1 6.32-6.32h2.13a6.327 6.327 0 0 1 6.319 6.32v2.13c0 .55-.446.995-.996.995h-.069v1.134a6.305 6.305 0 0 1-2.129 4.724v1.412c0 .432.24.82.627 1.014ZM49.9 13.77v.928c.671-.22 1.605-.68 2.558-1.632a.995.995 0 0 1 1.257-.125c.026.017 2.639 1.702 6.969 1.935v-1.106a4.332 4.332 0 0 0-4.327-4.327h-2.13a4.332 4.332 0 0 0-4.327 4.327Zm3.09 11.194 2.302 2.302 2.302-2.302a3.15 3.15 0 0 1-.104-.799v-.212a6.287 6.287 0 0 1-2.198.395c-.773 0-1.513-.14-2.198-.395v.212c0 .275-.036.543-.104.8Zm-2.025-6.935a4.332 4.332 0 0 0 4.327 4.327 4.332 4.332 0 0 0 4.327-4.327v-1.237c-3.082-.31-5.27-1.252-6.316-1.796a8.427 8.427 0 0 1-2.338 1.427v1.606Z" clip-rule="evenodd"/></svg>