<svg xmlns="http://www.w3.org/2000/svg" fill="none" viewBox="0 0 62 62"><path stroke="#052039" stroke-linecap="round" stroke-linejoin="round" stroke-miterlimit="10" stroke-width="2" d="M5.094 22.31a12.144 12.144 0 0 0 8.102 3.08l6.782 3.162V23.33a12.179 12.179 0 0 0 5.412-10.134C25.39 6.46 19.93 1 13.196 1 6.46 1 1 6.46 1 13.196c0 2.107.535 4.09 1.475 5.819m18.891 31.497 2.033-9.827a3.903 3.903 0 0 1 3.821-3.112h5.924m5.711 0h5.925a3.9 3.9 0 0 1 3.82 3.112l.52 2.51"/><path stroke="#052039" stroke-linecap="round" stroke-linejoin="round" stroke-miterlimit="10" stroke-width="2" d="M38.856 34.852v3.168a2.856 2.856 0 0 1-5.711 0v-3.168"/><path stroke="#052039" stroke-linecap="round" stroke-linejoin="round" stroke-miterlimit="10" stroke-width="2" d="M44.031 27.256a8.03 8.03 0 1 1-16.062 0m-.803-.001h.803v-5.711h-.803a2.856 2.856 0 0 0 0 5.71Zm17.668 0h-.803v-5.711h.803a2.856 2.856 0 0 1 0 5.71ZM61 45.634h-3.658V61H61V45.634Zm-23.14.244h2.617a3.413 3.413 0 0 1 3.334-2.683h6.167a3.413 3.413 0 0 1 3.367 2.853l.338 2.025h3.659m-23.708-2.195h-2.89c-1.624 0-2.992 1.293-2.997 2.918a2.917 2.917 0 0 0 .551 1.717h-8.614l-7.253-7.255a2.915 2.915 0 0 0-2.07-.857 2.927 2.927 0 0 0-2.07 4.997l7.706 7.706a5.868 5.868 0 0 0 3.015 1.606l20.513 4.017c.926.181 1.87.273 2.813.273h15.004"/><path stroke="#052039" stroke-linecap="round" stroke-linejoin="round" stroke-miterlimit="10" stroke-width="2" d="M28.3 50.513a2.922 2.922 0 0 0 2.376 1.22h10.243l1.22 1.219m4.315-37.84c.166.749.254 1.527.254 2.327v2.885a1.22 1.22 0 0 1-1.22 1.22H26.513a1.22 1.22 0 0 1-1.22-1.22v-2.886c0-2.956 1.2-5.632 3.137-7.57A10.674 10.674 0 0 1 36 6.73a10.69 10.69 0 0 1 8.749 4.536m-3.625 6.916v3.362m-3.658-2.143v2.143m-6.098-1.534v1.534M19.3 11.997v4.107a2.22 2.22 0 0 1-1.1 1.915l-3.884 2.272a2.22 2.22 0 0 1-2.242 0L8.189 18.02a2.22 2.22 0 0 1-1.098-1.915v-4.107"/><path stroke="#052039" stroke-linecap="round" stroke-linejoin="round" stroke-miterlimit="10" stroke-width="2" d="m12.555 15.246-6.84-4.068a.888.888 0 0 1 0-1.526l6.84-4.068a1.252 1.252 0 0 1 1.28 0l6.84 4.068a.888.888 0 0 1 0 1.526l-6.84 4.068a1.251 1.251 0 0 1-1.28 0Z"/></svg>