<svg xmlns="http://www.w3.org/2000/svg" fill="none" viewBox="0 0 58 62"><path fill="#052039" fill-rule="evenodd" d="M7.74 59.373v.437a1.95 1.95 0 0 1-1.946 1.946H1.946A1.953 1.953 0 0 1 0 59.81V43.19c0-1.072.879-1.946 1.946-1.946H5.22c2.927-7.916 9.685-13.973 18.023-15.919-4.452-2.162-7.532-6.732-7.532-11.998C15.712 5.988 21.694 0 29.032 0 36.379 0 42.36 5.989 42.36 13.327c0 5.266-3.08 9.836-7.534 11.998a25.371 25.371 0 0 1 13.587 8.325c.158.081.31.177.457.286.86.643 1.175.953 1.56 1.093.386.14.826.105 1.897.165a3.059 3.059 0 0 1 2.847 2.39c.245 1.044.288 1.484.493 1.84.205.354.565.612 1.345 1.346a3.066 3.066 0 0 1 .649 3.66v.002c-.485.957-.736 1.322-.807 1.725-.072.403.04.831.168 1.896v.003c.157 1.348-.534 2.595-1.752 3.167l2.068 4.828a.996.996 0 0 1-1.115 1.367l-2.746-.561-1.478 2.38a.996.996 0 0 1-1.764-.138l-1.83-4.33c-.71-.225-1.05-.354-1.394-.354-.192 0-.383.04-.637.115l-2.67 5.68a.996.996 0 0 1-1.763.077l-1.407-2.423-2.76.484a.996.996 0 0 1-1.076-1.4l2.558-5.511-.393-.166a3.052 3.052 0 0 1-1.884-2.857h-5.46a3.276 3.276 0 0 1-1.378 2.887c.38.535.602 1.186.602 1.886a3.287 3.287 0 0 1-2.673 3.221c.185.409.288.862.288 1.338 0 1.8-1.473 3.275-3.275 3.275H15.068c-3.287 0-5.276-.919-7.328-1.648ZM7.143 41.79c.352.34.577.81.596 1.33.674-.05 1.137-.353 1.467-.83 1.547-2.239 1.41-2.196 3.433-3.518 2.724-1.782 2.62-2.51 3.657-7.016a.996.996 0 0 1 1.208-.744c2.286.561 3.296 2.282 3.522 4.317.205 1.85-.297 3.96-.942 5.47h6.92a3.284 3.284 0 0 1 3.277 3.275c0 .613-.171 1.188-.468 1.68.32.175.607.402.851.668h6.526c0-.093-.007-.18-.022-.266-.07-.403-.32-.767-.805-1.724v-.001a3.061 3.061 0 0 1 .648-3.66c.78-.735 1.14-.992 1.344-1.347.205-.355.247-.795.491-1.84v-.001a3.065 3.065 0 0 1 2.85-2.389c1.071-.06 1.512-.025 1.897-.165s.7-.45 1.56-1.093c.169-.126.346-.233.529-.322a23.318 23.318 0 0 0-16.65-6.96c-10.01 0-18.55 6.29-21.889 15.136Zm.597 3.326v12.156c2.097.71 3.997 1.757 7.329 1.757h10.013c.706 0 1.282-.578 1.282-1.283 0-.706-.576-1.282-1.282-1.282H21.06a.996.996 0 0 1 0-1.992h6.409c.706 0 1.282-.579 1.282-1.285 0-.704-.576-1.282-1.282-1.282h-6.409a.996.996 0 0 1 0-1.992h7.192c.706 0 1.282-.577 1.282-1.282 0-.706-.576-1.283-1.282-1.283h-7.192a.997.997 0 0 1 0-1.992h5.945c.706 0 1.285-.577 1.285-1.282 0-.706-.579-1.283-1.285-1.283h-8.623a.996.996 0 0 1-.753-1.647c.757-.875 1.655-3.462 1.418-5.596-.097-.87-.403-1.671-1.078-2.172-.988 4.303-1.26 5.114-4.238 7.063-1.71 1.116-1.58 1.094-2.885 2.983-.69.998-1.655 1.637-3.105 1.694Zm21.293-20.454c6.247 0 11.334-5.094 11.334-11.335 0-6.241-5.087-11.335-11.334-11.335-6.242 0-11.329 5.094-11.329 11.335 0 6.24 5.087 11.335 11.329 11.335Zm24.426 27.394a.981.981 0 0 0-.025.02c-.314.263-.504.663-1.09 1.561l-.001.001a3.086 3.086 0 0 1-1.712 1.284l.69 1.63.829-1.336a.996.996 0 0 1 1.046-.45l1.56.32-1.297-3.03Zm-9.522 2.974a3.064 3.064 0 0 1-2.258-1.392c-.342-.522-.549-.876-.724-1.132l-1.648 3.55 1.566-.274a.996.996 0 0 1 1.033.48l.802 1.381 1.23-2.613Zm3.74-19.498c-.402-.3-.93-.3-1.331 0-1.12.837-1.57 1.186-2.072 1.369-.502.182-1.07.204-2.466.282-.5.029-.908.367-1.022.855-.318 1.362-.438 1.918-.705 2.38-.266.464-.688.846-1.707 1.804a1.094 1.094 0 0 0-.233 1.312c.632 1.248.897 1.751.99 2.277.092.526.014 1.09-.151 2.478v.001c-.06.496.204.954.663 1.149l.003.001c1.286.552 1.813.766 2.222 1.11.409.344.712.826 1.478 1.997.273.417.77.6 1.25.454h.001c1.338-.405 1.879-.578 2.413-.578.534 0 1.075.173 2.415.577h.002c.478.147.976-.036 1.25-.453.764-1.172 1.067-1.653 1.476-1.997.41-.344.937-.558 2.223-1.11l.003-.001c.46-.196.72-.655.663-1.15-.167-1.39-.244-1.952-.151-2.478.093-.526.359-1.029.99-2.277a1.097 1.097 0 0 0-.231-1.31l-.002-.002c-1.019-.958-1.44-1.34-1.707-1.803-.267-.463-.388-1.018-.708-2.38v-.004a1.092 1.092 0 0 0-1.019-.851c-1.396-.079-1.964-.1-2.466-.283-.502-.183-.951-.532-2.072-1.37Zm-.667 15.537c-3.795 0-6.892-3.097-6.892-6.892 0-3.794 3.097-6.891 6.892-6.891 3.798 0 6.891 3.097 6.891 6.891 0 3.795-3.093 6.892-6.892 6.892Zm0-1.992c2.7 0 4.899-2.202 4.899-4.9 0-2.697-2.199-4.899-4.9-4.899a4.91 4.91 0 0 0-4.899 4.9 4.91 4.91 0 0 0 4.9 4.899Zm-2.772-4.07a.997.997 0 0 1 1.407-1.41l.536.535 2.23-2.022a.997.997 0 0 1 1.338 1.476l-2.931 2.658a.996.996 0 0 1-1.373-.033l-1.207-1.204ZM1.992 43.236v16.528h3.756V43.236H1.992Z" clip-rule="evenodd"/></svg>