<svg xmlns="http://www.w3.org/2000/svg" fill="none" viewBox="0 0 62 62"><path fill="#052039" d="M62 34.132v-.024h-.001a.873.873 0 0 0-.044-.279l-4.393-13.144v-5.226a.879.879 0 0 0-.88-.879H45.23c.003-.115.005-.23.005-.346C45.234 6.385 38.848 0 31 0c-7.849 0-14.234 6.385-14.234 14.234 0 .116.002.231.005.346H5.316a.879.879 0 0 0-.879.879v5.226L.045 33.828a.877.877 0 0 0-.044.279H0v.033a5.909 5.909 0 0 0 4.438 5.682V61.12c0 .486.394.879.879.879h51.366a.879.879 0 0 0 .879-.879V39.823a5.909 5.909 0 0 0 4.437-5.682v-.009ZM18.89 21.706a14.309 14.309 0 0 0 2.083 2.62l-.815 8.903h-8.166l2.32-11.523h4.578Zm24.22 0h4.577l2.32 11.523h-8.165l-.816-8.902a14.322 14.322 0 0 0 2.083-2.62Zm-3.72 4.018.688 7.505h-8.2v-4.79a14.153 14.153 0 0 0 7.512-2.715Zm-9.268 7.505h-8.2l.688-7.505a14.153 14.153 0 0 0 7.512 2.716v4.79Zm-10.136 1.757a4.148 4.148 0 0 1-4.047 3.264 4.149 4.149 0 0 1-4.047-3.264h8.094Zm10.04 0a4.148 4.148 0 0 1-4.046 3.264 4.148 4.148 0 0 1-4.047-3.264h8.094Zm10.041 0a4.148 4.148 0 0 1-4.047 3.264 4.148 4.148 0 0 1-4.047-3.264h8.094Zm10.04 0a4.148 4.148 0 0 1-4.046 3.264 4.149 4.149 0 0 1-4.047-3.264h8.094ZM51.8 33.23l-2.32-11.523h6.57l3.852 11.523H51.8Zm4.005-16.892v3.612h-11.77a14.12 14.12 0 0 0 1.043-3.612h10.726ZM31 1.757c6.88 0 12.477 5.597 12.477 12.477S37.88 26.71 31 26.71s-12.477-5.598-12.477-12.477c0-6.88 5.597-12.477 12.477-12.477Zm-14.078 14.58a14.112 14.112 0 0 0 1.043 3.612H6.195v-3.612h10.727Zm-10.973 5.37h6.571L10.2 33.228H2.098L5.95 21.706Zm-4.097 13.28h8.094a4.148 4.148 0 0 1-4.047 3.262 4.148 4.148 0 0 1-4.047-3.263Zm25.73 25.256h-7.716V44.24h7.715v16.002Zm-9.474 0h-7.716V44.24h7.716v16.002Zm11.23 0v-16.88a.879.879 0 0 0-.878-.88H9.514a.879.879 0 0 0-.879.88v16.88h-2.44V39.999A5.902 5.902 0 0 0 10.92 37.2a5.9 5.9 0 0 0 5.02 2.807 5.9 5.9 0 0 0 5.02-2.806 5.9 5.9 0 0 0 5.02 2.806A5.9 5.9 0 0 0 31 37.2a5.9 5.9 0 0 0 5.02 2.806 5.9 5.9 0 0 0 5.02-2.806 5.9 5.9 0 0 0 5.02 2.806 5.9 5.9 0 0 0 5.021-2.806 5.902 5.902 0 0 0 4.723 2.798v20.244H29.34Zm26.763-21.994a4.148 4.148 0 0 1-4.047-3.263h8.094a4.148 4.148 0 0 1-4.047 3.264ZM25.344 19.307a.88.88 0 0 0 .446.122h7.292a.879.879 0 0 0 .447-.122 5.813 5.813 0 0 0 1.829-1.722c1.385-.267 2.745-.96 3.704-1.902 1.143-1.123 1.538-2.447 1.082-3.633-.404-1.053-1.478-1.65-2.953-1.686.005-.142.008-.286.01-.431a.879.879 0 0 0-.878-.894H22.55a.878.878 0 0 0-.878.894c.086 4.9 1.287 7.966 3.673 9.374Zm13.16-6.627c.264.688-.309 1.391-.674 1.75a5.27 5.27 0 0 1-1.411.967c.313-.947.532-2.038.658-3.278.832.004 1.31.259 1.427.56Zm-3.09-1.884c-.178 3.522-1.046 5.831-2.586 6.876h-6.784c-1.54-1.045-2.407-3.354-2.586-6.876h11.957Zm17.072 31.688H33.54a.879.879 0 0 0-.879.878v12.33a.88.88 0 0 0 .879.879h18.946a.879.879 0 0 0 .879-.88V43.363a.879.879 0 0 0-.879-.878Zm-.878 4.415c-1.04-.594-1.76-1.772-2.184-2.658h2.184v2.658Zm-.458 1.738c-.705 1.267-1.803 3.586-2.114 6.176H37.257c-.31-2.59-1.409-4.909-2.114-6.176 2.06-.933 3.197-3.266 3.643-4.396h8.72c.447 1.13 1.583 3.463 3.644 4.396ZM36.863 44.24c-.462.96-1.273 2.26-2.444 2.791V44.24h2.444Zm-2.445 6.913c.447 1.04.878 2.313 1.067 3.66h-1.067v-3.66Zm16.39 3.66c.15-1.075.455-2.104.8-3.005v3.005h-.8Zm-35.234-.907v-3.422a.879.879 0 0 1 1.757 0v3.422a.879.879 0 1 1-1.757 0Zm5.069 0v-3.422a.879.879 0 1 1 1.757 0v3.422a.879.879 0 0 1-1.757 0Z"/></svg>