<svg xmlns="http://www.w3.org/2000/svg" fill="none" viewBox="0 0 62 45"><path fill="#052039" fill-rule="evenodd" d="M3.207 0h55.586A3.21 3.21 0 0 1 62 3.207V41.69a3.21 3.21 0 0 1-3.207 3.207H3.207A3.21 3.21 0 0 1 0 41.69V3.207A3.21 3.21 0 0 1 3.207 0Zm55.586 42.759c.59 0 1.07-.48 1.07-1.07V3.208c0-.59-.48-1.07-1.07-1.07H3.207c-.59 0-1.07.48-1.07 1.07V41.69c0 .59.48 1.069 1.07 1.069h55.586ZM21.38 8.552a3.21 3.21 0 0 1 3.207 3.207c.59 0 1.07.478 1.07 1.069v2.138a1.07 1.07 0 0 1-1.07 1.069 3.21 3.21 0 0 1-3.207 3.206 3.21 3.21 0 0 1-3.207-3.206v-1.07h-4.276v1.07a3.21 3.21 0 0 1-3.206 3.206 3.21 3.21 0 0 1-3.207-3.206 1.07 1.07 0 0 1-1.07-1.07v-2.137c0-.59.48-1.07 1.07-1.07a3.21 3.21 0 0 1 3.207-3.206 3.21 3.21 0 0 1 3.207 3.207v1.069h4.275v-1.07a3.21 3.21 0 0 1 3.207-3.206Zm-10.69 8.552c.59 0 1.07-.48 1.07-1.07V11.76a1.07 1.07 0 0 0-2.138 0v4.276c0 .589.48 1.069 1.069 1.069Zm10.69 0c.59 0 1.07-.48 1.07-1.07V11.76a1.07 1.07 0 0 0-2.138 0v4.276c0 .589.479 1.069 1.068 1.069Zm33.138-10.69H31a1.07 1.07 0 0 0-1.069 1.069v21.379c0 .59.479 1.069 1.07 1.069h23.516c.59 0 1.07-.478 1.07-1.069V7.482a1.07 1.07 0 0 0-1.07-1.068ZM36.345 27.793v-2.138a4.28 4.28 0 0 1 4.276-4.276h4.276a4.28 4.28 0 0 1 4.276 4.276v2.138H36.344Zm6.414-8.552a3.21 3.21 0 0 1-3.207-3.207 3.21 3.21 0 0 1 3.207-3.206 3.21 3.21 0 0 1 3.207 3.206 3.21 3.21 0 0 1-3.207 3.207Zm10.69 8.552H51.31v-2.138c0-2.883-1.912-5.327-4.535-6.132.816-.939 1.328-2.15 1.328-3.489a5.351 5.351 0 0 0-5.344-5.344 5.351 5.351 0 0 0-5.345 5.344c0 1.34.512 2.55 1.329 3.49-2.623.804-4.536 3.248-4.536 6.131v2.138h-2.138V8.552h21.38v19.241Zm-16.035 8.552h10.69a1.069 1.069 0 1 1 0 2.138h-10.69a1.069 1.069 0 1 1 0-2.138Zm13.896-4.276H34.207a1.069 1.069 0 1 0 0 2.138H51.31a1.069 1.069 0 1 0 0-2.138ZM7.483 23.517h17.103c.59 0 1.07.479 1.07 1.07v4.275c0 .591-.48 1.07-1.07 1.07H7.483c-.59 0-1.07-.479-1.07-1.07v-4.276c0-.59.48-1.069 1.07-1.069Zm1.069 4.276h14.965v-2.138H8.552v2.138Zm9.62 8.552H7.482a1.069 1.069 0 1 0 0 2.138h10.69a1.069 1.069 0 1 0 0-2.138Zm-10.69-4.276h17.104a1.069 1.069 0 1 1 0 2.138H7.483a1.069 1.069 0 1 1 0-2.138Z" clip-rule="evenodd"/></svg>