<svg xmlns="http://www.w3.org/2000/svg" fill="none" viewBox="0 0 68 64"><path fill="#052039" fill-rule="evenodd" d="M17.38 8.171c.227.816 1.202 3.25 4.768 3.25a8.8 8.8 0 0 0 1.323-.103c1.89-.29 3.383-.793 4.702-1.237l.002-.001.457-.152a1.133 1.133 0 0 0-.714-2.151l-.466.156c-1.231.415-2.628.884-4.316 1.145-1.165.17-2.695.134-3.362-1.009-.387-.662-.324-1.429-.305-1.658l.004-.06 9.9-4.084h11.653c1.875 0 3.709.421 5.445 1.246l7.938 3.854a17.02 17.02 0 0 0 7.423 1.7h5.035a1.134 1.134 0 0 0 0-2.267h-5.035c-2.232 0-4.402-.496-6.44-1.473l-7.94-3.858A14.875 14.875 0 0 0 41.025 0H29.147c-.147 0-.295.03-.43.084L18.604 4.257c-1.295.542-1.64 2.416-1.224 3.914Zm-5.557 29.42c-.524 0-.995-.368-1.108-.9a24.262 24.262 0 0 1-.515-4.958c0-5.179 1.634-10.104 4.728-14.239a1.129 1.129 0 0 1 1.587-.229c.5.377.605 1.086.229 1.587-2.8 3.74-4.277 8.194-4.277 12.881 0 1.508.156 3.02.467 4.49a1.133 1.133 0 0 1-1.111 1.367Zm40.301 8.89c-.235 0-.476-.075-.68-.23-.5-.376-.6-1.085-.224-1.586a21.347 21.347 0 0 0 4.313-12.931c0-1.478-.151-2.958-.45-4.398a1.133 1.133 0 1 1 2.218-.46c.331 1.591.5 3.226.5 4.858 0 5.202-1.651 10.147-4.77 14.295a1.133 1.133 0 0 1-.907.451ZM30.6 43.066h6.8c.626 0 1.133-.508 1.133-1.133v-5.667H44.2c.626 0 1.133-.508 1.133-1.134v-6.8c0-.625-.507-1.133-1.133-1.133h-5.667v-5.666c0-.626-.507-1.134-1.133-1.134h-6.8c-.626 0-1.133.508-1.133 1.134V27.2H23.8c-.626 0-1.133.508-1.133 1.134v6.8c0 .625.507 1.133 1.133 1.133h5.667v5.666c0 .626.508 1.134 1.133 1.134Zm5.667-2.267h-4.534v-5.667c0-.625-.507-1.133-1.133-1.133h-5.667v-4.533H30.6c.626 0 1.133-.508 1.133-1.133v-5.667h4.534v5.666c0 .626.508 1.134 1.133 1.134h5.667V34H37.4c-.625 0-1.133.508-1.133 1.133V40.8Zm2.586 22.667h-11.88c-2.214 0-4.377-.494-6.428-1.469l-7.94-3.858a14.777 14.777 0 0 0-6.437-1.473H1.133a1.134 1.134 0 0 1 0-2.267h5.035c2.575 0 5.072.571 7.423 1.7l7.938 3.856a12.638 12.638 0 0 0 5.444 1.244h11.653l9.899-4.084.001-.024.003-.036c.018-.23.081-.996-.306-1.658-.664-1.143-2.198-1.18-3.361-1.01-1.689.262-3.085.73-4.316 1.145l-.467.157a1.134 1.134 0 0 1-.714-2.151l.458-.152h.002c1.319-.445 2.812-.948 4.701-1.238 4.674-.68 5.842 2.24 6.093 3.149.415 1.498.07 3.372-1.224 3.914l-10.111 4.173a1.211 1.211 0 0 1-.431.082ZM10.139 40.8c5.981-2.375 12.226-.447 14.804 4.52l6.25 2.597c4.672 1.936 6.386 5.384 4.702 9.457a1.126 1.126 0 0 1-.614.614c-.139.061-.286.09-.433.09-.148 0-.295-.029-.433-.085l-12.98-5.388a1.134 1.134 0 1 1 .871-2.095l11.839 4.915c.496-2.337-.782-4.155-3.82-5.413l-6.67-2.77a1.132 1.132 0 0 1-.656-.74c-2.276-4.632-7.964-5.28-12.205-3.522a1.146 1.146 0 0 1-.435.087H1.133a1.134 1.134 0 0 1 0-2.267h9.006Zm34.863-23.836a1.132 1.132 0 0 0-.655-.735l-6.67-2.77c-3.038-1.258-4.316-3.076-3.82-5.412l11.839 4.914a1.133 1.133 0 1 0 .87-2.095L33.587 5.478a1.14 1.14 0 0 0-.868 0 1.126 1.126 0 0 0-.614.615c-1.684 4.073.03 7.52 4.701 9.456l6.25 2.596c1.835 3.538 5.53 5.53 9.664 5.53 1.673 0 3.419-.326 5.141-1.008h9.006a1.134 1.134 0 0 0 0-2.267H57.64c-.15 0-.297.03-.435.084-4.245 1.754-9.93 1.108-12.204-3.52Zm3.765 32.982a1.134 1.134 0 0 1-.802-1.934c.444-.442 1.24-.521 1.682-.079.442.442.521 1.081.08 1.523l-.16.159c-.22.22-.51.33-.8.33ZM18.494 15.608a1.133 1.133 0 0 0 1.602.012l.161-.159a1.132 1.132 0 1 0-1.591-1.614l-.161.159a1.132 1.132 0 0 0-.011 1.602Z" clip-rule="evenodd"/></svg>