<svg xmlns="http://www.w3.org/2000/svg" fill="none" viewBox="0 0 62 69"><path fill="#052039" fill-rule="evenodd" d="M32.002 7.193a1.002 1.002 0 1 1-2.004 0V1.315a1.002 1.002 0 0 1 2.004 0v5.878Zm-4.046 40.176c.07.494.493.861.992.861h4.105c.5 0 .923-.367.993-.861l.384-2.708a11.533 11.533 0 0 0 1.993-.826l2.187 1.643c.4.3.958.26 1.31-.093l2.903-2.902c.353-.353.393-.912.093-1.31l-1.643-2.188a11.55 11.55 0 0 0 .825-1.993l2.709-.384c.494-.07.86-.493.86-.992V31.51c0-.5-.366-.923-.86-.993l-2.709-.384a11.543 11.543 0 0 0-.825-1.993l1.643-2.187c.3-.4.26-.958-.093-1.31l-2.902-2.903a1.002 1.002 0 0 0-1.31-.093l-2.188 1.643a11.549 11.549 0 0 0-1.993-.826l-.384-2.708a1.002 1.002 0 0 0-.992-.861h-4.106c-.499 0-.922.367-.992.861l-.384 2.708a11.55 11.55 0 0 0-1.993.826l-2.187-1.643c-.4-.3-.958-.26-1.31.093l-2.904 2.902a1.002 1.002 0 0 0-.092 1.31l1.643 2.188a11.538 11.538 0 0 0-.825 1.993l-2.709.384c-.494.07-.861.494-.861.993v4.105c0 .499.367.922.861.992l2.709.384c.214.695.491 1.361.825 1.993l-1.643 2.187c-.3.4-.26.958.093 1.311l2.902 2.903c.353.352.912.392 1.31.092l2.188-1.643c.632.334 1.298.611 1.993.826l.384 2.708Zm1.862-1.143-.354-2.497a1.002 1.002 0 0 0-.754-.833 9.541 9.541 0 0 1-2.688-1.113 1.003 1.003 0 0 0-1.123.055l-2.016 1.515-1.672-1.672 1.515-2.016c.246-.328.268-.772.055-1.122a9.548 9.548 0 0 1-1.113-2.689 1.002 1.002 0 0 0-.833-.754l-2.497-.354V32.38l2.497-.354c.406-.057.735-.356.833-.754a9.546 9.546 0 0 1 1.113-2.688c.213-.35.19-.795-.055-1.123l-1.515-2.016 1.672-1.672 2.016 1.515c.328.246.772.268 1.123.055a9.544 9.544 0 0 1 2.688-1.113c.398-.098.697-.427.754-.833l.354-2.496h2.365l.355 2.496c.057.406.356.735.754.833a9.543 9.543 0 0 1 2.688 1.113c.35.213.795.191 1.123-.055l2.016-1.515 1.672 1.672-1.515 2.016a1.002 1.002 0 0 0-.055 1.123c.5.823.878 1.727 1.113 2.688.097.398.427.697.833.754l2.496.355v2.365l-2.496.354a1.002 1.002 0 0 0-.833.754 9.546 9.546 0 0 1-1.113 2.688c-.213.35-.191.795.055 1.123l1.515 2.016-1.672 1.672-2.016-1.515a1.003 1.003 0 0 0-1.123-.055 9.54 9.54 0 0 1-2.688 1.113 1.002 1.002 0 0 0-.754.833l-.355 2.497h-2.365Zm-5.312-12.663a6.495 6.495 0 1 0 12.99 0 6.495 6.495 0 0 0-12.99 0ZM31 38.053a4.49 4.49 0 1 1 0-8.98 4.49 4.49 0 0 1 0 8.98Zm-6.565 26.374a4.31 4.31 0 0 1-3.456-4.223V54.06a5.36 5.36 0 0 0-2.28-4.391c-5.533-3.878-9.155-10.306-9.155-17.58 0-6.019 2.532-11.484 6.567-15.39a1.002 1.002 0 0 1 1.394 1.44c-3.667 3.55-5.957 8.504-5.957 13.95 0 6.593 3.28 12.42 8.302 15.938a7.361 7.361 0 0 1 3.065 5.03h8.732a1.003 1.003 0 0 1 0 2.007h-8.663v5.14c0 1.229.963 2.233 2.175 2.3h11.681a2.304 2.304 0 0 0 2.175-2.3v-5.14h-3.359a1.002 1.002 0 1 1 0-2.006h3.428A7.448 7.448 0 0 1 42.19 48c5-3.522 8.262-9.335 8.262-15.911 0-10.687-8.618-19.361-19.284-19.45A19.26 19.26 0 0 0 20.5 15.758a1.002 1.002 0 0 1-1.09-1.682 21.264 21.264 0 0 1 11.775-3.442c11.765.099 21.272 9.666 21.272 21.455 0 7.255-3.603 13.668-9.112 17.55-1.452 1.022-2.323 2.664-2.323 4.42v6.145a4.31 4.31 0 0 1-3.458 4.223 7.104 7.104 0 0 1-13.127 0Zm2.304.084A5.094 5.094 0 0 0 31 66.808c1.78 0 3.347-.913 4.26-2.297h-8.52ZM54.117 31.31c0 .553.449 1.002 1.002 1.002h5.879a1.002 1.002 0 0 0 0-2.004h-5.879c-.553 0-1.002.448-1.002 1.002ZM1.002 32.312a1.002 1.002 0 0 1 0-2.004H6.88a1.002 1.002 0 1 1 0 2.004H1.002Zm13.652-17.348a1.002 1.002 0 0 0 0-1.417L10.498 9.39a1.002 1.002 0 0 0-1.417 1.418l4.156 4.156a1.002 1.002 0 0 0 1.418 0ZM8.908 21.58a1.002 1.002 0 0 1-.73 1.866l-2.032-.796a1.002 1.002 0 1 1 .73-1.866l2.032.796Zm13.66-11.79c.516-.202.77-.784.569-1.299l-.82-2.09a1.002 1.002 0 1 0-1.866.73l.82 2.091c.201.515.782.77 1.298.568Zm18.166-.568a1.002 1.002 0 1 1-1.867-.731l.82-2.09a1.002 1.002 0 0 1 1.866.73l-.82 2.091Zm6.613 5.742a1.002 1.002 0 0 0 1.418 0l4.156-4.156a1.002 1.002 0 1 0-1.417-1.418l-4.157 4.157a1.002 1.002 0 0 0 0 1.417Zm6.477 8.482a1.002 1.002 0 0 1-.731-1.866l2.031-.796a1.002 1.002 0 1 1 .732 1.866l-2.032.796Z" clip-rule="evenodd"/></svg>