<svg xmlns="http://www.w3.org/2000/svg" fill="none" viewBox="0 0 60 60"><path fill="#052039" fill-rule="evenodd" d="M52.258 58.065V32.903H60V60H4.839a2.907 2.907 0 0 1-2.904-2.903V55.16c0-.746.292-1.42.755-1.935a2.885 2.885 0 0 1-.755-1.936v-1.935c0-1.6 1.303-2.903 2.904-2.903h1.016A16.467 16.467 0 0 1 0 33.87v-.2c0-3.841 1.354-7.582 3.813-10.532l4.911-5.894a2.898 2.898 0 0 1-1.95-2.729c0-1.6 1.303-2.903 2.903-2.903h.128L7.436 8.059a3.92 3.92 0 0 1-.662-2.185 3.943 3.943 0 0 1 3.939-3.939h4.37C15.77.782 17.017 0 18.454 0h3.735a3.943 3.943 0 0 1 3.939 3.939v.198c0 .609-.144 1.218-.416 1.762l-2.857 5.714h.37c1.6 0 2.903 1.303 2.903 2.903a2.9 2.9 0 0 1-1.95 2.73l4.91 5.893a16.476 16.476 0 0 1 3.806 10.34l5.815-5.815 4.838 4.839 7.342-7.342-4.465-4.465 12.873-2.575-2.575 12.874-4.465-4.465-8.71 8.71-4.838-4.84-6.013 6.012a16.471 16.471 0 0 1-5.65 10.04h1.017c1.601 0 2.904 1.302 2.904 2.903v1.935c0 .746-.29 1.421-.755 1.936.463.515.755 1.19.755 1.935v1.936c0 .34-.07.664-.178.968h2.113v-17.42h7.742v17.42h1.936v-21.29h7.742v21.29h1.935Zm3.277-30.995 1.296-6.481-6.48 1.297 5.184 5.184Zm-7.148 11.64h-3.87v19.355h3.87V38.71Zm-9.677 3.87h-3.871v15.485h3.87V42.58Zm-30-36.706c0 .397.116.781.336 1.112l3.085 4.627h8.561l3.29-6.58c.138-.277.212-.586.212-.896V3.94a2.006 2.006 0 0 0-2.005-2.004h-3.734a2.006 2.006 0 0 0-2.003 2.004v3.803h-1.936V3.939c0-.012.002-.023.004-.034.001-.011.003-.022.003-.034h-3.81A2.006 2.006 0 0 0 8.71 5.874Zm15.483 8.642a.97.97 0 0 0-.967-.968H9.677a.97.97 0 0 0-.967.968.97.97 0 0 0 .967.968h13.549a.97.97 0 0 0 .968-.968ZM1.936 33.671v.2c0 5.195 2.787 9.99 7.28 12.58h14.471a14.531 14.531 0 0 0 7.282-12.58v-.2a14.55 14.55 0 0 0-3.364-9.294l-5.799-6.958H11.098L5.3 24.377a14.546 14.546 0 0 0-3.365 9.294ZM4.84 48.387a.97.97 0 0 0-.968.968v1.935a.97.97 0 0 0 .968.968h23.226a.97.97 0 0 0 .967-.968v-1.935a.97.97 0 0 0-.968-.968h-.967v1.936H25.16v-1.936h-1.935v1.936H21.29v-1.936h-1.935v1.936h-1.936v-1.936h-1.935v1.936h-1.936v-1.936h-1.935v1.936H9.677v-1.936H7.742v1.936H5.806v-1.936H4.84Zm0 9.678H28.064a.97.97 0 0 0 .968-.968V55.16a.97.97 0 0 0-.968-.968h-.967v1.936H25.16v-1.935h-1.935v1.935H21.29v-1.935h-1.935v1.935h-1.936v-1.935h-1.935v1.935h-1.936v-1.935h-1.935v1.935H9.677v-1.935H7.742v1.935H5.806v-1.935H4.84a.97.97 0 0 0-.968.967v1.936a.97.97 0 0 0 .968.968Zm49.355 0h3.87V34.839h-3.87v23.226Zm-38.497-25.38 1.979.495a4.764 4.764 0 0 1 3.614 4.629 4.774 4.774 0 0 1-3.87 4.68v2.027h-1.936V42.49a4.776 4.776 0 0 1-3.871-4.681v-1.035h1.936v1.035a2.838 2.838 0 0 0 2.835 2.836h.134a2.838 2.838 0 0 0 2.837-2.835 2.832 2.832 0 0 0-2.149-2.752l-1.979-.495a4.765 4.765 0 0 1-3.614-4.63 4.774 4.774 0 0 1 3.871-4.68v-2.027h1.935v2.026a4.776 4.776 0 0 1 3.871 4.681L19.355 30v-.067a2.838 2.838 0 0 0-2.836-2.836h-.134a2.839 2.839 0 0 0-2.837 2.836c0 1.304.884 2.436 2.149 2.752ZM44.517 3.87h1.935v1.935h1.935v1.936h-1.935V5.807h-1.935V3.87Zm1.935 3.87h-1.935v1.936h1.935V7.742Zm-1.936-1.935h-1.935v1.936h1.935V5.806Zm-3.87 6.774h1.935v1.936h-1.936V12.58Zm1.935 3.871h-1.936v1.936h1.936V16.45Zm0-1.935h1.935v1.935h-1.935v-1.935Zm-1.936 0H38.71v1.935h1.935v-1.935Zm13.548-5.807h1.936v1.936h-1.936V8.709Zm1.936 3.871h-1.936v1.936h1.936V12.58Zm0-1.935h1.935v1.935H56.13v-1.935Zm-1.935 0h-1.936v1.935h1.936v-1.935ZM33.87 18.387h1.935v1.936h-1.935v-1.936Zm1.935 3.871h-1.935v1.936h1.935v-1.936Zm0-1.935h1.936v1.935h-1.936v-1.935Zm-1.935 0h-1.935v1.935h1.935v-1.935ZM30.968 3.87h1.935v1.936h-1.935V3.87Zm1.935 3.87h-1.935v1.936h1.935V7.742Zm0-1.935h1.936v1.936h-1.936V5.806Zm-1.935 0h-1.936v1.936h1.936V5.806Z" clip-rule="evenodd"/></svg>