<svg xmlns="http://www.w3.org/2000/svg" fill="none" viewBox="0 0 60 60"><path fill="#052039" fill-rule="evenodd" d="M25.6 6.295c0-2.485 1.962-4.463 4.337-4.463 2.376 0 4.338 1.978 4.338 4.463 0 2.485-1.962 4.463-4.338 4.463-2.375 0-4.337-1.978-4.337-4.463ZM29.937 0c-3.428 0-6.17 2.839-6.17 6.295s2.742 6.295 6.17 6.295 6.17-2.839 6.17-6.295S33.365 0 29.937 0Zm-5.504 15.843a5.223 5.223 0 0 0-5.213 5.213v15.136c0 .87.716 1.586 1.585 1.586.87 0 1.586-.716 1.586-1.586V25.309a.919.919 0 0 1 .045-.283.916.916 0 0 1 1.788.283v30.397c0 1.245 1.09 2.336 2.336 2.336h.25c1.235 0 2.317-1.072 2.336-2.304V41.696a.914.914 0 0 1 .916-.917c.506 0 .917.41.917.916v14.136c0 1.246 1.09 2.336 2.336 2.336 1.245 0 2.336-1.09 2.336-2.336V25.896a.916.916 0 0 1 .791-1.378h.125c.021 0 .042 0 .063.002a.916.916 0 0 1 .979.914v10.883c0 .87.715 1.586 1.585 1.586s1.585-.716 1.585-1.586V21.056a5.223 5.223 0 0 0-5.213-5.213H24.433ZM20.805 39.61c.572 0 1.112-.142 1.586-.392v16.488c0 2.257 1.912 4.168 4.169 4.168h.25c1.27 0 2.43-.605 3.202-1.535.77 1.001 1.976 1.66 3.303 1.66 2.257 0 4.168-1.91 4.168-4.168V39.274a3.393 3.393 0 0 0 1.71.461 3.425 3.425 0 0 0 3.419-3.418V21.056c0-3.883-3.162-7.046-7.046-7.046H24.433c-3.883 0-7.046 3.163-7.046 7.046v15.136a3.425 3.425 0 0 0 3.418 3.418Zm12.579-21.397a.916.916 0 0 0-1.64-.82l-1 2.002a.916.916 0 0 0-.09.518l.818 6.892-1.535 1.304-1.534-1.304.818-6.892a.916.916 0 0 0-.09-.518l-1.001-2.001a.916.916 0 0 0-1.64.819l.879 1.756-.843 7.108a.916.916 0 0 0 .316.806l2.499 2.124a.914.914 0 0 0 1.193 0l2.499-2.124a.916.916 0 0 0 .316-.806l-.843-7.108.878-1.756Zm-25.842-6.08a.916.916 0 0 1 .695.315l6.755 7.756a.916.916 0 0 1-.717 1.517l-3.436-.098v10.19a.916.916 0 0 1-1.832 0V20.682a.916.916 0 0 1 .942-.916l2.287.065-4.683-5.377-4.597 5.376 2.186-.064a.916.916 0 0 1 .943.916v11.133a.916.916 0 1 1-1.832 0v-10.19l-3.31.098A.916.916 0 0 1 .22 20.21l6.63-7.755a.916.916 0 0 1 .692-.321ZM51.642.313a.916.916 0 0 0-1.377 0l-8.131 9.256a.916.916 0 0 0 .688 1.521h4.338v12.344a.916.916 0 0 0 1.832 0v-13.26a.916.916 0 0 0-.916-.916h-3.23l6.107-6.953 6.107 6.953h-3.23a.916.916 0 0 0-.916.916v13.26a.916.916 0 0 0 1.832 0V11.089h4.338a.916.916 0 0 0 .688-1.52L51.642.311Z" clip-rule="evenodd"/></svg>